<svg xmlns="http://www.w3.org/2000/svg" width="890" height="293" viewBox="0 0 890 293">
<g>
<path d="M 0.00 0.00 L 890.00 0.00 L 890.00 293.00 L 0.00 293.00 ZM 87.61 230.75 C90.61,233.45 94.04,233.63 96.82,231.25 C97.95,230.29 106.14,220.95 115.04,210.50 C123.93,200.05 131.57,191.36 132.01,191.20 C132.46,191.03 139.50,198.68 147.66,208.19 C168.84,232.88 168.96,233.00 173.82,233.00 C177.30,233.00 178.96,232.12 185.60,226.75 C189.85,223.31 196.39,218.13 200.13,215.24 C212.25,205.87 212.07,204.53 196.26,186.25 C178.15,165.33 172.76,158.89 173.15,158.64 C173.63,158.32 188.06,151.82 195.90,148.39 C201.36,146.00 202.04,145.44 200.51,144.55 C199.52,143.97 196.74,142.03 194.33,140.24 L 189.96 136.98 L 172.23 144.60 C162.48,148.79 154.17,152.73 153.77,153.36 C151.42,157.00 153.20,159.71 171.97,181.00 C182.39,192.82 190.94,202.78 190.96,203.13 C191.02,204.00 176.31,215.50 175.15,215.50 C174.16,215.50 160.22,200.07 144.65,181.75 C134.05,169.27 132.06,168.45 127.29,174.61 C125.02,177.55 114.40,190.42 97.39,210.85 L 95.28 213.38 L 94.19 209.94 C93.59,208.05 89.43,192.10 84.94,174.50 C80.46,156.90 74.88,135.07 72.54,126.00 C61.12,81.65 56.78,63.89 57.25,63.42 C57.53,63.14 76.15,71.09 98.63,81.10 C121.11,91.10 142.95,100.77 147.17,102.58 C151.39,104.39 156.29,106.62 158.06,107.53 C161.16,109.13 161.26,109.12 160.51,107.35 C158.28,102.07 157.08,98.29 157.04,96.42 C157.01,94.74 154.89,93.39 146.25,89.57 C127.09,81.08 112.06,74.33 81.55,60.54 C65.08,53.09 50.63,47.00 49.44,47.00 C48.25,47.00 46.08,47.93 44.63,49.07 C41.35,51.66 41.15,56.45 43.92,66.52 C45.63,72.75 62.94,140.73 79.17,205.00 C84.11,224.55 85.53,228.88 87.61,230.75 ZM 581.59 190.25 L 581.19 194.00 L 601.74 194.00 L 602.34 189.25 C602.67,186.64 603.48,179.44 604.14,173.25 L 605.33 162.00 L 613.48 162.00 C634.99,162.00 649.18,154.83 655.56,140.75 C657.83,135.73 658.47,132.67 658.81,125.22 C659.22,116.41 659.08,115.60 656.11,109.58 C652.64,102.52 648.82,99.08 641.06,96.02 C636.47,94.22 633.65,94.00 614.57,94.00 L 593.22 94.00 L 592.62 97.25 C592.29,99.04 591.11,108.38 590.00,118.00 C588.88,127.62 587.32,140.90 586.52,147.50 C585.12,159.03 582.42,182.43 581.59,190.25 ZM 203.15 134.68 C204.62,136.45 227.04,136.56 228.80,134.80 C229.63,133.97 230.00,128.87 230.00,118.30 L 230.00 103.00 L 245.17 103.00 C245.84,103.00 246.48,103.00 247.10,103.00 C256.33,103.01 260.52,103.01 262.43,100.93 C264.02,99.19 264.01,95.99 264.00,90.14 C264.00,89.67 264.00,89.18 264.00,88.67 C264.00,88.12 264.00,87.60 264.00,87.09 C264.01,81.06 264.02,77.80 262.40,76.04 C260.50,73.98 256.36,73.99 247.36,74.00 C246.72,74.00 246.04,74.00 245.35,74.00 L 230.00 74.00 L 230.00 58.70 C230.00,48.13 229.63,43.03 228.80,42.20 C227.15,40.55 204.85,40.55 203.20,42.20 C202.37,43.03 202.00,48.13 202.00,58.70 L 202.00 74.00 L 186.83 74.00 C186.15,74.00 185.50,74.00 184.87,74.00 C175.67,73.99 171.48,73.99 169.58,76.07 C167.98,77.81 167.99,81.02 168.01,86.91 C168.01,87.39 168.01,87.89 168.02,88.40 C168.02,94.51 168.46,100.18 168.98,101.00 C169.73,102.19 173.16,102.60 185.71,103.00 L 201.50 103.50 L 201.78 118.43 C201.94,127.36 202.50,133.89 203.15,134.68 ZM 321.78 195.45 C332.09,197.95 343.62,197.06 355.16,192.87 L 360.82 190.82 L 361.99 182.16 C362.63,177.40 363.38,172.71 363.65,171.75 C364.31,169.38 362.83,169.55 356.98,172.51 C350.19,175.95 339.55,178.31 333.81,177.65 C322.53,176.35 313.72,169.71 310.53,160.09 C307.92,152.23 308.69,138.28 312.15,130.88 C315.70,123.27 321.04,117.62 327.84,114.28 C332.99,111.75 334.49,111.50 344.54,111.50 C354.94,111.50 355.95,111.68 362.01,114.69 C365.55,116.45 368.60,117.73 368.79,117.54 C368.98,117.36 369.73,113.22 370.47,108.35 C371.78,99.70 371.77,99.46 369.67,97.81 C366.49,95.32 357.14,92.98 347.76,92.33 C318.94,90.33 295.31,107.31 288.39,134.98 C285.87,145.04 286.85,161.41 290.50,170.36 C295.44,182.46 307.24,191.92 321.78,195.45 ZM 504.89 194.25 C504.95,194.66 509.22,195.00 514.39,195.00 L 523.78 195.00 L 524.35 191.75 C524.67,189.96 525.46,183.55 526.11,177.50 C526.76,171.45 527.61,165.62 527.99,164.55 C528.82,162.24 529.85,163.57 542.27,182.91 L 550.03 195.00 L 561.02 195.00 C567.69,195.00 572.00,194.61 572.00,194.00 C572.00,193.45 566.57,184.88 559.92,174.97 L 547.85 156.94 L 553.85 150.22 C557.15,146.52 562.84,140.57 566.50,137.00 C570.16,133.43 574.51,128.81 576.16,126.75 L 579.17 123.00 L 555.12 123.00 L 542.81 136.42 C536.05,143.80 530.37,149.70 530.19,149.52 C530.02,149.35 531.04,139.15 532.46,126.85 C533.89,114.56 535.33,101.90 535.67,98.71 L 536.29 92.92 L 516.50 93.50 L 514.76 108.00 C513.80,115.97 511.20,137.57 508.98,156.00 C505.12,187.99 504.64,192.54 504.89,194.25 ZM 706.50 194.33 C710.42,196.41 721.28,196.46 727.21,194.45 C729.71,193.59 733.69,191.24 736.05,189.23 L 740.33 185.57 L 738.96 194.08 L 748.23 193.79 L 757.50 193.50 L 758.73 182.50 C760.72,164.71 765.01,128.73 765.50,125.75 L 765.95 123.00 L 746.24 123.00 L 745.19 130.25 C744.62,134.24 743.37,144.93 742.43,154.00 C740.85,169.16 740.50,170.73 738.10,173.34 C732.26,179.72 723.53,181.78 718.63,177.93 C715.22,175.24 715.21,171.77 718.50,146.00 C719.87,135.27 720.99,125.71 721.00,124.75 C721.00,123.20 719.86,123.00 711.13,123.00 L 701.26 123.00 L 700.64 127.75 C698.14,146.99 696.01,168.63 696.02,174.50 C696.05,184.86 698.95,190.35 706.50,194.33 ZM 777.37 193.95 C785.05,196.38 800.40,196.67 807.65,194.51 C818.96,191.15 825.17,183.44 825.32,172.56 C825.49,161.09 820.89,156.11 804.42,149.97 C800.29,148.43 796.23,146.61 795.40,145.92 C793.07,143.98 794.02,138.80 797.00,137.22 C800.31,135.46 814.16,136.24 819.38,138.48 C821.52,139.39 823.61,139.77 824.04,139.32 C824.47,138.87 825.13,135.54 825.51,131.91 C826.20,125.35 826.19,125.32 823.35,124.19 C817.10,121.72 810.72,120.82 801.75,121.15 C793.66,121.45 791.53,121.92 786.46,124.51 C778.10,128.79 774.66,133.94 774.24,142.79 C773.98,148.35 774.32,150.18 776.23,153.47 C779.10,158.42 782.67,160.85 793.20,165.03 C797.77,166.84 802.29,168.99 803.25,169.81 C805.63,171.85 805.45,176.28 802.89,178.60 C799.53,181.63 786.46,181.17 778.05,177.72 C774.50,176.26 771.52,175.17 771.42,175.28 C771.33,175.40 770.80,178.65 770.24,182.50 C769.57,187.19 769.57,189.91 770.24,190.75 C770.80,191.44 774.00,192.88 777.37,193.95 ZM 464.02 195.46 C470.60,197.30 480.56,196.87 488.39,194.40 C493.19,192.89 493.90,192.32 494.38,189.59 C495.59,182.74 496.22,176.00 495.65,176.00 C495.32,176.00 491.56,177.17 487.31,178.59 C478.59,181.52 474.15,181.34 467.81,177.77 C462.09,174.56 459.69,168.86 460.15,159.62 C460.62,150.38 464.28,143.79 471.04,140.00 C477.10,136.60 488.35,136.48 494.95,139.75 C497.39,140.95 499.52,141.81 499.68,141.65 C499.84,141.49 500.51,137.87 501.18,133.61 C502.20,127.02 502.16,125.71 500.94,124.93 C495.85,121.67 479.19,120.05 470.89,122.00 C450.86,126.72 439.99,141.13 440.01,162.91 C440.02,170.85 440.42,173.36 442.35,177.50 C446.86,187.14 453.25,192.44 464.02,195.46 ZM 666.38 194.42 C668.29,195.36 672.28,195.96 676.66,195.98 L 683.83 196.00 L 684.72 189.75 C685.56,183.80 685.48,183.40 683.13,181.41 L 680.65 179.31 L 681.88 168.91 C682.55,163.18 684.88,144.06 687.05,126.41 C689.22,108.76 691.00,93.79 691.00,93.16 C691.00,92.36 687.93,92.00 681.11,92.00 L 671.23 92.00 L 670.61 96.25 C668.61,110.18 661.00,178.77 661.00,182.92 C661.00,189.31 662.49,192.50 666.38,194.42 ZM 382.94 196.08 C385.23,196.80 394.55,196.33 396.11,195.41 C396.44,195.22 397.02,192.48 397.39,189.34 C398.02,184.02 397.89,183.48 395.50,181.56 L 392.93 179.50 L 395.48 158.50 C402.13,103.78 403.00,96.38 403.00,94.27 C403.00,92.06 402.72,92.00 393.00,92.00 L 383.00 92.00 L 383.00 94.75 C383.00,96.26 381.23,112.12 379.07,130.00 C372.74,182.53 372.46,186.05 374.38,189.77 C376.04,192.97 378.25,194.60 382.94,196.08 ZM 406.69 194.25 C407.28,195.28 424.76,195.20 425.39,194.17 C425.68,193.72 426.84,185.73 427.98,176.42 C429.13,167.11 430.95,152.28 432.03,143.45 C432.31,141.21 432.56,139.21 432.79,137.42 C433.94,128.47 434.39,124.96 432.91,123.67 C431.95,122.84 430.19,122.93 427.28,123.08 C426.38,123.13 425.37,123.18 424.25,123.21 L 414.50 123.50 L 413.23 133.16 C410.60,153.16 406.28,193.53 406.69,194.25 ZM 628.00 141.65 C624.48,143.45 621.81,143.95 615.75,143.97 C610.11,143.99 608.00,143.65 608.00,142.72 C608.00,140.68 610.96,116.79 611.59,113.75 C612.15,111.06 612.31,111.00 619.33,111.00 C631.59,111.00 637.29,115.54 637.29,125.31 C637.29,132.80 633.99,138.60 628.00,141.65 ZM 145.44 67.01 C146.71,67.50 148.26,67.33 149.50,66.54 C153.50,64.00 152.55,60.91 142.36,43.33 C137.00,34.07 132.14,26.17 131.56,25.77 C128.14,23.39 120.48,27.56 121.23,31.39 C121.90,34.81 143.19,66.13 145.44,67.01 ZM 420.23 110.00 C426.94,114.09 434.66,111.59 436.97,104.59 C439.33,97.44 434.37,91.00 426.50,91.00 C415.43,91.00 411.01,104.38 420.23,110.00 ZM 172.65 55.17 C176.65,59.59 179.65,56.83 184.03,44.73 C187.04,36.42 187.12,35.83 185.58,33.48 C183.78,30.73 179.46,30.12 176.85,32.25 C175.24,33.56 171.00,47.22 171.00,51.08 C171.00,52.33 171.74,54.17 172.65,55.17 Z" fill="rgba(0,0,0,0)"/>
<path d="M 581.59 190.25 C582.42,182.43 585.12,159.03 586.52,147.50 C587.32,140.90 588.88,127.62 590.00,118.00 C591.11,108.38 592.29,99.04 592.62,97.25 L 593.22 94.00 L 614.57 94.00 C633.65,94.00 636.47,94.22 641.06,96.02 C648.82,99.08 652.64,102.52 656.11,109.58 C659.08,115.60 659.22,116.41 658.81,125.22 C658.47,132.67 657.83,135.73 655.56,140.75 C649.18,154.83 634.99,162.00 613.48,162.00 L 605.33 162.00 L 604.14 173.25 C603.48,179.44 602.67,186.64 602.34,189.25 L 601.74 194.00 L 581.19 194.00 ZM 203.15 134.68 C202.50,133.89 201.94,127.36 201.78,118.43 L 201.50 103.50 L 185.71 103.00 C173.16,102.60 169.73,102.19 168.98,101.00 C168.46,100.18 168.02,94.51 168.02,88.40 C168.01,87.89 168.01,87.39 168.01,86.91 C167.99,81.02 167.98,77.81 169.58,76.07 C171.48,73.99 175.67,73.99 184.87,74.00 C185.50,74.00 186.15,74.00 186.83,74.00 L 202.00 74.00 L 202.00 58.70 C202.00,48.13 202.37,43.03 203.20,42.20 C204.85,40.55 227.15,40.55 228.80,42.20 C229.63,43.03 230.00,48.13 230.00,58.70 L 230.00 74.00 L 245.35 74.00 C246.04,74.00 246.72,74.00 247.36,74.00 C256.36,73.99 260.50,73.98 262.40,76.04 C264.02,77.80 264.01,81.06 264.00,87.09 C264.00,87.60 264.00,88.12 264.00,88.67 C264.00,89.18 264.00,89.67 264.00,90.14 C264.01,95.99 264.02,99.19 262.43,100.93 C260.52,103.01 256.33,103.01 247.10,103.00 C246.48,103.00 245.84,103.00 245.17,103.00 L 230.00 103.00 L 230.00 118.30 C230.00,128.87 229.63,133.97 228.80,134.80 C227.04,136.56 204.62,136.45 203.15,134.68 ZM 706.50 194.33 C698.95,190.35 696.05,184.86 696.02,174.50 C696.01,168.63 698.14,146.99 700.64,127.75 L 701.26 123.00 L 711.13 123.00 C719.86,123.00 721.00,123.20 721.00,124.75 C720.99,125.71 719.87,135.27 718.50,146.00 C715.21,171.77 715.22,175.24 718.63,177.93 C723.53,181.78 732.26,179.72 738.10,173.34 C740.50,170.73 740.85,169.16 742.43,154.00 C743.37,144.93 744.62,134.24 745.19,130.25 L 746.24 123.00 L 765.95 123.00 L 765.50 125.75 C765.01,128.73 760.72,164.71 758.73,182.50 L 757.50 193.50 L 748.23 193.79 L 738.96 194.08 L 740.33 185.57 L 736.05 189.23 C733.69,191.24 729.71,193.59 727.21,194.45 C721.28,196.46 710.42,196.41 706.50,194.33 ZM 777.37 193.95 C774.00,192.88 770.80,191.44 770.24,190.75 C769.57,189.91 769.57,187.19 770.24,182.50 C770.80,178.65 771.33,175.40 771.42,175.28 C771.52,175.17 774.50,176.26 778.05,177.72 C786.46,181.17 799.53,181.63 802.89,178.60 C805.45,176.28 805.63,171.85 803.25,169.81 C802.29,168.99 797.77,166.84 793.20,165.03 C782.67,160.85 779.10,158.42 776.23,153.47 C774.32,150.18 773.98,148.35 774.24,142.79 C774.66,133.94 778.10,128.79 786.46,124.51 C791.53,121.92 793.66,121.45 801.75,121.15 C810.72,120.82 817.10,121.72 823.35,124.19 C826.19,125.32 826.20,125.35 825.51,131.91 C825.13,135.54 824.47,138.87 824.04,139.32 C823.61,139.77 821.52,139.39 819.38,138.48 C814.16,136.24 800.31,135.46 797.00,137.22 C794.02,138.80 793.07,143.98 795.40,145.92 C796.23,146.61 800.29,148.43 804.42,149.97 C820.89,156.11 825.49,161.09 825.32,172.56 C825.17,183.44 818.96,191.15 807.65,194.51 C800.40,196.67 785.05,196.38 777.37,193.95 ZM 666.38 194.42 C662.49,192.50 661.00,189.31 661.00,182.92 C661.00,178.77 668.61,110.18 670.61,96.25 L 671.23 92.00 L 681.11 92.00 C687.93,92.00 691.00,92.36 691.00,93.16 C691.00,93.79 689.22,108.76 687.05,126.41 C684.88,144.06 682.55,163.18 681.88,168.91 L 680.65 179.31 L 683.13 181.41 C685.48,183.40 685.56,183.80 684.72,189.75 L 683.83 196.00 L 676.66 195.98 C672.28,195.96 668.29,195.36 666.38,194.42 ZM 628.00 141.65 C633.99,138.60 637.29,132.80 637.29,125.31 C637.29,115.54 631.59,111.00 619.33,111.00 C612.31,111.00 612.15,111.06 611.59,113.75 C610.96,116.79 608.00,140.68 608.00,142.72 C608.00,143.65 610.11,143.99 615.75,143.97 C621.81,143.95 624.48,143.45 628.00,141.65 ZM 145.44 67.01 C143.19,66.13 121.90,34.81 121.23,31.39 C120.48,27.56 128.14,23.39 131.56,25.77 C132.14,26.17 137.00,34.07 142.36,43.33 C152.55,60.91 153.50,64.00 149.50,66.54 C148.26,67.33 146.71,67.50 145.44,67.01 ZM 172.65 55.17 C171.74,54.17 171.00,52.33 171.00,51.08 C171.00,47.22 175.24,33.56 176.85,32.25 C179.46,30.12 183.78,30.73 185.58,33.48 C187.12,35.83 187.04,36.42 184.03,44.73 C179.65,56.83 176.65,59.59 172.65,55.17 Z" fill="#399aa0"/>
<path d="M 87.61 230.75 C85.53,228.88 84.11,224.55 79.17,205.00 C62.94,140.73 45.63,72.75 43.92,66.52 C41.15,56.45 41.35,51.66 44.63,49.07 C46.08,47.93 48.25,47.00 49.44,47.00 C50.63,47.00 65.08,53.09 81.55,60.54 C112.06,74.33 127.09,81.08 146.25,89.57 C154.89,93.39 157.01,94.74 157.04,96.42 C157.08,98.29 158.28,102.07 160.51,107.35 C161.26,109.12 161.16,109.13 158.06,107.53 C156.29,106.62 151.39,104.39 147.17,102.58 C142.95,100.77 121.11,91.10 98.63,81.10 C76.15,71.09 57.53,63.14 57.25,63.42 C56.78,63.89 61.12,81.65 72.54,126.00 C74.88,135.07 80.46,156.90 84.94,174.50 C89.43,192.10 93.59,208.05 94.19,209.94 L 95.28 213.38 L 97.39 210.85 C114.40,190.42 125.02,177.55 127.29,174.61 C132.06,168.45 134.05,169.27 144.65,181.75 C160.22,200.07 174.16,215.50 175.15,215.50 C176.31,215.50 191.02,204.00 190.96,203.13 C190.94,202.78 182.39,192.82 171.97,181.00 C153.20,159.71 151.42,157.00 153.77,153.36 C154.17,152.73 162.48,148.79 172.23,144.60 L 189.96 136.98 L 194.33 140.24 C196.74,142.03 199.52,143.97 200.51,144.55 C202.04,145.44 201.36,146.00 195.90,148.39 C188.06,151.82 173.63,158.32 173.15,158.64 C172.76,158.89 178.15,165.33 196.26,186.25 C212.07,204.53 212.25,205.87 200.13,215.24 C196.39,218.13 189.85,223.31 185.60,226.75 C178.96,232.12 177.30,233.00 173.82,233.00 C168.96,233.00 168.84,232.88 147.66,208.19 C139.50,198.68 132.46,191.03 132.01,191.20 C131.57,191.36 123.93,200.05 115.04,210.50 C106.14,220.95 97.95,230.29 96.82,231.25 C94.04,233.63 90.61,233.45 87.61,230.75 ZM 321.78 195.45 C307.24,191.92 295.44,182.46 290.50,170.36 C286.85,161.41 285.87,145.04 288.39,134.98 C295.31,107.31 318.94,90.33 347.76,92.33 C357.14,92.98 366.49,95.32 369.67,97.81 C371.77,99.46 371.78,99.70 370.47,108.35 C369.73,113.22 368.98,117.36 368.79,117.54 C368.60,117.73 365.55,116.45 362.01,114.69 C355.95,111.68 354.94,111.50 344.54,111.50 C334.49,111.50 332.99,111.75 327.84,114.28 C321.04,117.62 315.70,123.27 312.15,130.88 C308.69,138.28 307.92,152.23 310.53,160.09 C313.72,169.71 322.53,176.35 333.81,177.65 C339.55,178.31 350.19,175.95 356.98,172.51 C362.83,169.55 364.31,169.38 363.65,171.75 C363.38,172.71 362.63,177.40 361.99,182.16 L 360.82 190.82 L 355.16 192.87 C343.62,197.06 332.09,197.95 321.78,195.45 ZM 382.94 196.08 C378.25,194.60 376.04,192.97 374.38,189.77 C372.46,186.05 372.74,182.53 379.07,130.00 C381.23,112.12 383.00,96.26 383.00,94.75 L 383.00 92.00 L 393.00 92.00 C402.72,92.00 403.00,92.06 403.00,94.27 C403.00,96.38 402.13,103.78 395.48,158.50 L 392.93 179.50 L 395.50 181.56 C397.89,183.48 398.02,184.02 397.39,189.34 C397.02,192.48 396.44,195.22 396.11,195.41 C394.55,196.33 385.23,196.80 382.94,196.08 ZM 464.02 195.46 C453.25,192.44 446.86,187.14 442.35,177.50 C440.42,173.36 440.02,170.85 440.01,162.91 C439.99,141.13 450.86,126.72 470.89,122.00 C479.19,120.05 495.85,121.67 500.94,124.93 C502.16,125.71 502.20,127.02 501.18,133.61 C500.51,137.87 499.84,141.49 499.68,141.65 C499.52,141.81 497.39,140.95 494.95,139.75 C488.35,136.48 477.10,136.60 471.04,140.00 C464.28,143.79 460.62,150.38 460.15,159.62 C459.69,168.86 462.09,174.56 467.81,177.77 C474.15,181.34 478.59,181.52 487.31,178.59 C491.56,177.17 495.32,176.00 495.65,176.00 C496.22,176.00 495.59,182.74 494.38,189.59 C493.90,192.32 493.19,192.89 488.39,194.40 C480.56,196.87 470.60,197.30 464.02,195.46 ZM 406.69 194.25 C406.28,193.53 410.60,153.16 413.23,133.16 L 414.50 123.50 L 424.25 123.21 C435.78,122.88 434.85,120.46 432.03,143.45 C430.95,152.28 429.13,167.11 427.98,176.42 C426.84,185.73 425.68,193.72 425.39,194.17 C424.76,195.20 407.28,195.28 406.69,194.25 ZM 504.89 194.25 C504.64,192.54 505.12,187.99 508.98,156.00 C511.20,137.57 513.80,115.97 514.76,108.00 L 516.50 93.50 L 526.40 93.21 L 536.29 92.92 L 535.67 98.71 C535.33,101.90 533.89,114.56 532.46,126.85 C531.04,139.15 530.02,149.35 530.19,149.52 C530.37,149.70 536.05,143.80 542.81,136.42 L 555.12 123.00 L 567.14 123.00 L 579.17 123.00 L 576.16 126.75 C574.51,128.81 570.16,133.43 566.50,137.00 C562.84,140.57 557.15,146.52 553.85,150.22 L 547.85 156.94 L 559.92 174.97 C566.57,184.88 572.00,193.45 572.00,194.00 C572.00,194.61 567.69,195.00 561.02,195.00 L 550.03 195.00 L 542.27 182.91 C529.85,163.57 528.82,162.24 527.99,164.55 C527.61,165.62 526.76,171.45 526.11,177.50 C525.46,183.55 524.67,189.96 524.35,191.75 L 523.78 195.00 L 514.39 195.00 C509.22,195.00 504.95,194.66 504.89,194.25 ZM 420.23 110.00 C411.01,104.38 415.43,91.00 426.50,91.00 C434.37,91.00 439.33,97.44 436.97,104.59 C434.66,111.59 426.94,114.09 420.23,110.00 Z" fill="#0a3747"/>
</g>
</svg>