<svg xmlns="http://www.w3.org/2000/svg" width="255" height="258" viewBox="0 0 255 258">
<g>
<path d="M 0.00 0.00 L 255.00 0.00 L 255.00 258.00 L 0.00 258.00 ZM 65.61 230.75 C68.61,233.45 72.04,233.63 74.82,231.25 C75.95,230.29 84.14,220.95 93.04,210.50 C101.93,200.05 109.55,191.37 109.98,191.21 C110.40,191.05 117.44,198.70 125.63,208.21 C146.88,232.91 146.97,233.00 151.82,233.00 C155.20,233.00 156.91,232.16 162.18,227.88 C165.66,225.06 172.41,219.65 177.19,215.85 C186.17,208.71 187.62,206.62 186.55,202.36 C186.21,200.98 178.18,190.86 168.71,179.86 C159.25,168.86 151.40,159.55 151.27,159.18 C151.14,158.80 155.14,156.70 160.16,154.50 C165.17,152.30 171.80,149.34 174.89,147.91 L 180.50 145.33 L 177.37 143.70 C175.65,142.80 172.80,140.86 171.05,139.39 L 167.86 136.70 L 158.68 140.85 C153.63,143.13 145.68,146.54 141.00,148.43 C132.37,151.92 129.75,154.34 130.71,157.99 C130.97,158.99 139.78,169.59 150.29,181.54 L 169.40 203.27 L 166.45 205.71 C164.83,207.05 161.08,210.01 158.13,212.29 L 152.75 216.43 L 150.63 213.84 C149.46,212.41 143.77,205.91 138.00,199.37 C132.22,192.84 124.35,183.79 120.50,179.25 C112.21,169.46 109.84,168.74 105.29,174.61 C101.39,179.65 81.69,203.41 76.95,208.79 C74.31,211.80 72.87,212.80 72.54,211.87 C72.26,211.12 68.40,196.10 63.94,178.50 C59.48,160.90 53.68,138.18 51.05,128.00 C38.79,80.52 34.72,63.94 35.22,63.44 C35.52,63.15 44.03,66.58 54.13,71.08 C64.23,75.58 78.35,81.83 85.50,84.98 C102.10,92.28 124.68,102.35 132.86,106.09 C138.12,108.50 139.08,108.69 138.47,107.25 C136.30,102.14 135.08,98.28 135.04,96.41 C135.01,94.65 131.13,92.59 110.75,83.52 C97.41,77.58 73.75,66.93 58.17,59.86 C42.59,52.79 28.78,47.00 27.48,47.00 C23.61,47.00 19.80,51.01 19.83,55.03 C19.85,56.94 22.56,69.07 25.86,82.00 C34.96,117.63 52.63,187.07 58.18,209.00 C62.21,224.92 63.57,228.91 65.61,230.75 ZM 181.20 134.80 C182.00,135.60 186.31,136.00 194.00,136.00 C201.69,136.00 206.00,135.60 206.80,134.80 C207.63,133.97 208.00,128.87 208.00,118.30 L 208.00 103.00 L 223.17 103.00 C223.84,103.00 224.48,103.00 225.10,103.00 C234.33,103.01 238.52,103.01 240.43,100.93 C242.02,99.19 242.01,95.99 242.00,90.14 C242.00,89.67 242.00,89.18 242.00,88.67 C242.00,88.12 242.00,87.60 242.00,87.09 C242.01,81.06 242.02,77.80 240.40,76.04 C238.50,73.98 234.36,73.99 225.36,74.00 C224.72,74.00 224.04,74.00 223.35,74.00 L 208.00 74.00 L 208.00 58.70 C208.00,48.13 207.63,43.03 206.80,42.20 C205.15,40.55 182.85,40.55 181.20,42.20 C180.37,43.03 180.00,48.13 180.00,58.70 L 180.00 74.00 L 164.83 74.00 C164.13,74.00 163.45,74.00 162.80,74.00 C153.67,73.99 149.50,73.98 147.59,76.06 C145.98,77.82 145.99,81.05 146.00,87.01 C146.00,87.52 146.00,88.04 146.00,88.58 C146.00,97.50 146.33,100.19 147.57,101.43 C148.86,102.72 151.88,103.00 164.57,103.00 L 180.00 103.00 L 180.00 118.30 C180.00,128.87 180.37,133.97 181.20,134.80 ZM 110.51 49.75 C120.83,65.21 122.31,67.00 124.81,67.00 C128.21,67.00 130.00,65.37 130.00,62.28 C130.00,60.04 111.62,27.25 109.53,25.77 C106.52,23.62 99.00,27.23 99.00,30.83 C99.00,31.75 104.18,40.27 110.51,49.75 ZM 150.65 55.17 C154.65,59.59 157.65,56.83 162.03,44.73 C165.04,36.42 165.12,35.83 163.58,33.48 C161.78,30.73 157.46,30.12 154.85,32.25 C153.24,33.56 149.00,47.22 149.00,51.08 C149.00,52.33 149.74,54.17 150.65,55.17 Z" fill="rgba(0,0,0,0)"/>
<path d="M 181.20 134.80 C180.37,133.97 180.00,128.87 180.00,118.30 L 180.00 103.00 L 164.57 103.00 C151.88,103.00 148.86,102.72 147.57,101.43 C146.33,100.19 146.00,97.50 146.00,88.58 C146.00,88.04 146.00,87.52 146.00,87.01 C145.99,81.05 145.98,77.82 147.59,76.06 C149.50,73.98 153.67,73.99 162.80,74.00 C163.45,74.00 164.13,74.00 164.83,74.00 L 180.00 74.00 L 180.00 58.70 C180.00,48.13 180.37,43.03 181.20,42.20 C182.85,40.55 205.15,40.55 206.80,42.20 C207.63,43.03 208.00,48.13 208.00,58.70 L 208.00 74.00 L 223.35 74.00 C224.04,74.00 224.72,74.00 225.36,74.00 C234.36,73.99 238.50,73.98 240.40,76.04 C242.02,77.80 242.01,81.06 242.00,87.09 C242.00,87.60 242.00,88.12 242.00,88.67 C242.00,89.18 242.00,89.67 242.00,90.14 C242.01,95.99 242.02,99.19 240.43,100.93 C238.52,103.01 234.33,103.01 225.10,103.00 C224.48,103.00 223.84,103.00 223.17,103.00 L 208.00 103.00 L 208.00 118.30 C208.00,128.87 207.63,133.97 206.80,134.80 C206.00,135.60 201.69,136.00 194.00,136.00 C186.31,136.00 182.00,135.60 181.20,134.80 ZM 110.51 49.75 C104.18,40.27 99.00,31.75 99.00,30.83 C99.00,27.23 106.52,23.62 109.53,25.77 C111.62,27.25 130.00,60.04 130.00,62.28 C130.00,65.37 128.21,67.00 124.81,67.00 C122.31,67.00 120.83,65.21 110.51,49.75 ZM 150.65 55.17 C149.74,54.17 149.00,52.33 149.00,51.08 C149.00,47.22 153.24,33.56 154.85,32.25 C157.46,30.12 161.78,30.73 163.58,33.48 C165.12,35.83 165.04,36.42 162.03,44.73 C157.65,56.83 154.65,59.59 150.65,55.17 Z" fill="#399aa0"/>
<path d="M 65.61 230.75 C63.57,228.91 62.21,224.92 58.18,209.00 C52.63,187.07 34.96,117.63 25.86,82.00 C22.56,69.07 19.85,56.94 19.83,55.03 C19.80,51.01 23.61,47.00 27.48,47.00 C28.78,47.00 42.59,52.79 58.17,59.86 C73.75,66.93 97.41,77.58 110.75,83.52 C131.13,92.59 135.01,94.65 135.04,96.41 C135.08,98.28 136.30,102.14 138.47,107.25 C139.08,108.69 138.12,108.50 132.86,106.09 C124.68,102.35 102.10,92.28 85.50,84.98 C78.35,81.83 64.23,75.58 54.13,71.08 C44.03,66.58 35.52,63.15 35.22,63.44 C34.72,63.94 38.79,80.52 51.05,128.00 C53.68,138.18 59.48,160.90 63.94,178.50 C68.40,196.10 72.26,211.12 72.54,211.87 C72.87,212.80 74.31,211.80 76.95,208.79 C81.69,203.41 101.39,179.65 105.29,174.61 C109.84,168.74 112.21,169.46 120.50,179.25 C124.35,183.79 132.22,192.84 138.00,199.37 C143.77,205.91 149.46,212.41 150.63,213.84 L 152.75 216.43 L 158.13 212.29 C161.08,210.01 164.83,207.05 166.45,205.71 L 169.40 203.27 L 150.29 181.54 C139.78,169.59 130.97,158.99 130.71,157.99 C129.75,154.34 132.37,151.92 141.00,148.43 C145.68,146.54 153.63,143.13 158.68,140.85 L 167.86 136.70 L 171.05 139.39 C172.80,140.86 175.65,142.80 177.37,143.70 L 180.50 145.33 L 174.89 147.91 C171.80,149.34 165.17,152.30 160.16,154.50 C155.14,156.70 151.14,158.80 151.27,159.18 C151.40,159.55 159.25,168.86 168.71,179.86 C178.18,190.86 186.21,200.98 186.55,202.36 C187.62,206.62 186.17,208.71 177.19,215.85 C172.41,219.65 165.66,225.06 162.18,227.88 C156.91,232.16 155.20,233.00 151.82,233.00 C146.97,233.00 146.88,232.91 125.63,208.21 C117.44,198.70 110.40,191.05 109.98,191.21 C109.55,191.37 101.93,200.05 93.04,210.50 C84.14,220.95 75.95,230.29 74.82,231.25 C72.04,233.63 68.61,233.45 65.61,230.75 Z" fill="#f6faf9"/>
</g>
</svg>