<?xml version="1.0" encoding="UTF-8" standalone="no"?>
<!-- Created with Inkscape (http://www.inkscape.org/) -->

<svg
   width="185.151mm"
   height="154.19044mm"
   viewBox="0 0 185.151 154.19044"
   version="1.1"
   id="svg5"
   inkscape:version="1.1.2 (b8e25be833, 2022-02-05)"
   sodipodi:docname="Midjourney.svg"
   xmlns:inkscape="http://www.inkscape.org/namespaces/inkscape"
   xmlns:sodipodi="http://sodipodi.sourceforge.net/DTD/sodipodi-0.dtd"
   xmlns="http://www.w3.org/2000/svg"
   xmlns:svg="http://www.w3.org/2000/svg">
  <sodipodi:namedview
     id="namedview7"
     pagecolor="#ffffff"
     bordercolor="#666666"
     borderopacity="1.0"
     inkscape:pageshadow="2"
     inkscape:pageopacity="0.0"
     inkscape:pagecheckerboard="0"
     inkscape:document-units="mm"
     showgrid="false"
     inkscape:zoom="0.16013082"
     inkscape:cx="927.36675"
     inkscape:cy="1448.8154"
     inkscape:window-width="1920"
     inkscape:window-height="1017"
     inkscape:window-x="-8"
     inkscape:window-y="-8"
     inkscape:window-maximized="1"
     inkscape:current-layer="layer1" />
  <defs
     id="defs2">
    <style
       id="style836">.cls-1{fill:#0a3747;}</style>
    <linearGradient
       id="paint0_linear_648_2031"
       x1="0"
       y1="3"
       x2="229.52499"
       y2="278.41299"
       gradientUnits="userSpaceOnUse">
      <stop
         stop-color="#FF02F0"
         id="stop1385" />
      <stop
         offset="1"
         stop-color="#FFC800"
         id="stop1387" />
    </linearGradient>
    <linearGradient
       id="paint1_linear_648_2031"
       x1="340"
       y1="0"
       x2="484"
       y2="432"
       gradientUnits="userSpaceOnUse">
      <stop
         stop-color="#FF02F0"
         id="stop1390" />
      <stop
         offset="1"
         stop-color="#FFC800"
         id="stop1392" />
    </linearGradient>
  </defs>
  <g
     inkscape:label="Layer 1"
     inkscape:groupmode="layer"
     id="layer1"
     transform="translate(-71.001687,-31.956234)">
    <g
       id="Layer_1-2-9-1"
       transform="matrix(3.2952896,0,0,3.2952896,71.01283,31.919912)"
       style="fill:#0a3747;fill-opacity:1">
      <path
         d="M 5.45,42.27 4.06,39.62 C 3.66,38.87 3.92,38.36 4.76,38.3 l 6.86,-0.45 13.13,-0.85 9.41,-0.61 13.17,-0.85 4.63,-0.3 A 0.79,0.79 0 0 1 52.51,36.7 58.43,58.43 0 0 1 42,43.6 l -1.93,1 a 2.88,2.88 0 0 0 2,0.59 3.61,3.61 0 0 0 2,-0.85 c 0.72,-0.55 1.4,-1.16 2.15,-1.65 a 4.51,4.51 0 0 1 5.54,0.26 c 0.75,0.58 1.44,1.24 2.21,1.77 a 3.71,3.71 0 0 0 1.36,0.5 c 0.55,0.11 0.89,0.39 0.85,0.86 -0.04,0.47 -0.41,0.75 -1,0.72 a 5.23,5.23 0 0 1 -3,-1.44 A 20.7,20.7 0 0 0 50.54,44 2.9,2.9 0 0 0 47.09,43.94 c -0.64,0.42 -1.23,0.93 -1.84,1.41 a 5,5 0 0 1 -7,-0.12 l -1.14,-0.95 a 3.21,3.21 0 0 0 -4.38,0 c -0.55,0.44 -1.08,0.9 -1.65,1.33 a 4.64,4.64 0 0 1 -5.87,0 c -0.59,-0.44 -1.15,-0.92 -1.72,-1.38 a 2.92,2.92 0 0 0 -4.13,0 c -0.59,0.45 -1.18,0.91 -1.79,1.33 a 5,5 0 0 1 -6,0.11 C 10.77,45.19 10,44.55 9.23,44 8.93,43.77 8.64,43.55 8.33,43.33 A 1.18,1.18 0 0 0 7,43.19 c -0.82,0.5 -1.63,1 -2.44,1.52 C 3.75,45.23 3,45.74 2.2,46.17 A 4.21,4.21 0 0 1 0.79,46.55 0.7,0.7 0 0 1 0,45.84 0.77,0.77 0 0 1 0.71,45 1.62,1.62 0 0 0 1.33,44.84 Q 3.39,43.6 5.45,42.27 Z m 0.45,-2.5 c 0.29,0.55 0.54,1 0.77,1.49 0.12,0.26 0.28,0.29 0.54,0.25 a 2.32,2.32 0 0 1 0.83,0 4.27,4.27 0 0 1 1.79,0.93 c 0.81,0.62 1.6,1.28 2.45,1.86 a 3.58,3.58 0 0 0 4.49,0 c 0.64,-0.45 1.25,-1 1.89,-1.41 A 4.32,4.32 0 0 1 24.32,43 c 0.58,0.45 1.13,0.93 1.71,1.38 a 3.14,3.14 0 0 0 4.15,0 c 0.47,-0.36 0.91,-0.74 1.36,-1.11 a 5.1,5.1 0 0 1 3.61,-1.37 5.36,5.36 0 0 1 3.1,1.35 0.55,0.55 0 0 0 0.68,0.1 c 1,-0.51 2.09,-1 3.12,-1.52 a 48.78,48.78 0 0 0 7.13,-4.48 l 0.31,-0.26 v -0.08 z"
         id="path842-5-8"
         style="fill:#0a3747;fill-opacity:1" />
      <path
         d="M 13.24,18.5 A 27.07,27.07 0 0 0 11.71,9.81 47.77,47.77 0 0 0 7.93,1.32 0.86,0.86 0 0 1 8,0.24 C 8.2,0 8.54,-0.08 9,0.14 a 49.59,49.59 0 0 1 12.84,8.44 48.13,48.13 0 0 1 11.35,15.12 34.28,34.28 0 0 1 3.16,9.72 c 0.09,0.55 0,0.92 -0.42,1 a 1.24,1.24 0 0 1 -0.76,0 35.41,35.41 0 0 0 -11,-2.49 24.62,24.62 0 0 0 -11.78,2.21 C 11.16,34.7 10,35.39 8.77,36 a 0.81,0.81 0 0 1 -1,-0.13 0.74,0.74 0 0 1 0,-1 21.46,21.46 0 0 0 4.86,-10.37 31,31 0 0 0 0.61,-6 z M 10.49,2.56 10.41,2.63 10.59,3.02 c 0.83,2 1.71,4 2.47,6 a 28.56,28.56 0 0 1 1.58,6.64 29,29 0 0 1 -0.17,7.34 27,27 0 0 1 -2.41,8.21 c -0.28,0.58 -0.58,1.14 -0.91,1.77 l 0.32,-0.1 c 0.86,-0.34 1.7,-0.71 2.57,-1 a 26,26 0 0 1 11.25,-1.38 37.89,37.89 0 0 1 8.87,1.94 c 0.13,0 0.27,0.08 0.48,0.14 A 42.34,42.34 0 0 0 26.41,15.78 49.17,49.17 0 0 0 10.49,2.56 Z"
         id="path844-2-9"
         style="fill:#0a3747;fill-opacity:1" />
      <path
         d="m 23.5,5.7 a 8.88,8.88 0 0 1 3.07,1.08 30.29,30.29 0 0 1 6,4.35 58.11,58.11 0 0 1 6.55,6.76 42.64,42.64 0 0 1 4.34,6.7 64,64 0 0 1 3.78,8.41 l 0.11,0.3 a 0.78,0.78 0 0 1 -1.07,1 c -0.55,-0.22 -1.11,-0.43 -1.66,-0.67 a 6.51,6.51 0 0 0 -4.15,-0.36 2.14,2.14 0 0 1 -0.35,0.06 0.79,0.79 0 0 1 -1,-0.62 65.48,65.48 0 0 0 -5.73,-13.89 33.11,33.11 0 0 0 -5.9,-8 A 30.51,30.51 0 0 0 23.06,7.23 0.79600565,0.79600565 0 0 1 23.5,5.7 Z M 45.22,32.19 A 46.72,46.72 0 0 0 29.8,10.87 c 5.2,6.05 8.25,13.23 10.69,20.79 a 7.7,7.7 0 0 1 4.73,0.53 z"
         id="path846-9-5"
         style="fill:#0a3747;fill-opacity:1" />
    </g>
  </g>
</svg>
