<svg xmlns="http://www.w3.org/2000/svg" width="450" height="450" viewBox="0 0 450 450">
<g>
<path d="M 111.45 403.91 C110.42,402.25 112.73,400.33 114.11,401.71 C115.27,402.87 114.54,405.00 113.00,405.00 C112.51,405.00 111.82,404.51 111.45,403.91 ZM 165.26 401.19 C162.38,400.16 157.36,397.22 154.10,394.66 C149.08,390.72 147.49,390.00 143.77,390.00 C137.87,390.00 129.89,387.53 123.92,383.85 C114.88,378.29 104.74,364.61 101.48,353.58 C100.48,350.18 99.47,349.13 94.97,346.80 C85.32,341.82 79.02,333.37 76.03,321.40 C75.18,317.99 74.34,317.00 70.99,315.50 C65.88,313.19 58.56,305.39 55.76,299.26 C54.06,295.53 53.56,292.41 53.45,284.80 C53.34,277.66 52.86,274.44 51.65,272.59 C47.27,265.91 45.66,259.69 45.53,249.00 C45.42,240.23 45.01,237.68 43.05,233.52 C38.47,223.81 39.43,210.25 45.45,199.35 C47.52,195.61 47.65,194.67 46.70,189.90 C43.95,175.95 51.88,157.18 63.60,149.94 C66.68,148.04 67.00,147.39 67.02,143.17 C67.04,136.39 69.61,125.32 72.55,119.32 C75.35,113.59 82.62,105.82 86.82,104.06 C88.63,103.31 90.44,100.98 92.39,96.94 C97.22,86.90 109.63,78.00 118.79,78.00 C120.86,78.00 122.33,76.89 125.00,73.28 C129.34,67.43 134.48,64.47 142.86,63.01 C147.10,62.27 150.74,60.87 153.42,58.95 C158.99,54.95 167.86,52.00 174.30,52.00 C182.30,52.00 188.69,54.60 194.16,60.06 C202.35,68.26 204.17,80.77 198.93,92.95 L 196.63 98.30 L 198.81 104.40 C201.40,111.60 201.59,117.48 199.43,122.89 C197.98,126.51 197.99,127.19 199.61,131.66 C202.13,138.62 202.15,159.22 199.65,167.59 C197.95,173.27 197.93,174.04 199.41,179.02 C201.41,185.74 201.41,189.71 199.44,195.52 C198.01,199.73 198.02,200.49 199.54,204.46 C200.45,206.84 201.54,211.20 201.97,214.15 C202.40,217.09 202.81,182.90 202.88,138.17 C202.97,73.59 203.26,56.92 204.25,57.25 C205.24,57.58 205.50,92.52 205.50,227.50 C205.50,362.48 205.24,397.42 204.25,397.75 C203.26,398.08 202.98,380.02 202.89,309.83 C202.82,256.33 202.44,223.27 201.91,226.00 C201.43,228.48 199.86,233.13 198.42,236.34 L 195.81 242.18 L 198.61 248.34 C200.88,253.34 201.41,255.91 201.41,262.00 C201.40,266.12 200.85,271.12 200.17,273.11 C199.29,275.69 199.23,277.48 199.97,279.42 C201.40,283.18 201.18,294.88 199.61,298.50 C198.54,300.98 198.54,302.18 199.65,305.38 C201.68,311.20 201.26,319.65 198.64,326.00 L 196.37 331.50 L 198.36 334.88 C201.23,339.74 201.80,352.05 199.50,359.37 C197.87,364.54 197.86,365.20 199.38,368.98 C202.77,377.46 200.79,389.80 195.08,395.75 C188.80,402.30 175.28,404.76 165.26,401.19 ZM 185.80 396.59 C193.46,392.59 197.68,383.34 195.83,374.64 C194.83,369.97 193.68,368.79 192.67,371.42 C192.37,372.20 189.98,374.10 187.37,375.63 C180.59,379.60 171.65,379.58 164.27,375.56 C161.40,373.99 158.35,371.94 157.50,371.00 C156.05,369.40 155.67,369.44 151.31,371.65 C146.18,374.24 142.30,374.50 137.00,372.58 C133.07,371.17 131.81,367.20 135.50,367.86 C142.68,369.13 146.99,369.06 149.80,367.60 C152.65,366.13 152.77,365.84 151.71,363.03 C150.88,360.85 150.87,359.73 151.67,358.93 C152.91,357.69 153.33,358.08 158.09,364.70 C162.38,370.68 170.23,374.39 177.35,373.80 C186.52,373.04 192.56,366.79 195.60,354.91 C198.56,343.36 194.81,333.95 185.50,329.54 C176.72,325.39 179.59,321.71 188.65,325.50 C193.26,327.42 192.87,327.55 194.55,323.53 C196.45,318.98 196.40,310.19 194.44,305.51 C193.02,302.11 193.02,301.40 194.46,297.81 C196.43,292.88 196.65,285.45 194.96,280.78 C193.87,277.76 193.93,276.32 195.34,271.29 C198.76,259.10 196.69,250.56 188.27,242.14 L 182.89 236.76 L 183.49 231.63 C184.22,225.39 182.08,220.54 177.29,217.52 C175.52,216.41 171.98,214.19 169.42,212.59 C163.82,209.10 161.05,203.77 161.02,196.40 C161.00,190.21 162.39,185.87 166.19,180.27 C169.07,176.04 176.21,171.00 179.34,171.00 C182.60,171.00 181.10,174.57 177.10,176.34 C170.48,179.26 165.14,188.10 165.04,196.29 C164.97,202.68 168.23,207.58 174.77,210.90 C184.55,215.87 188.00,220.90 188.00,230.20 C188.00,233.87 188.49,235.65 189.75,236.61 C192.44,238.65 192.91,238.36 195.20,233.25 C198.28,226.38 198.33,213.32 195.30,206.74 C192.60,200.89 187.65,196.21 183.28,195.39 C180.95,194.96 180.00,194.23 180.00,192.89 C180.00,189.84 184.53,190.08 190.66,193.46 L 194.83 195.76 L 195.40 193.63 C196.42,189.85 196.04,184.80 194.34,179.41 C192.73,174.32 192.76,173.85 194.96,165.66 C196.83,158.67 197.16,155.37 196.82,146.84 C196.38,135.99 194.74,130.80 189.84,124.75 C188.08,122.58 187.86,121.74 188.83,120.77 C189.79,119.81 190.50,119.83 192.16,120.87 C194.99,122.64 195.96,121.04 195.98,114.57 C196.01,107.94 192.80,101.57 187.62,97.93 C181.65,93.74 180.89,92.99 181.54,91.94 C182.54,90.32 186.62,90.91 189.36,93.06 C190.80,94.20 192.42,94.86 192.96,94.52 C194.46,93.60 197.00,84.16 196.99,79.57 C196.98,69.82 191.70,61.58 183.44,58.42 C177.49,56.15 167.21,56.90 160.75,60.07 C158.14,61.35 156.00,62.73 156.00,63.14 C156.00,63.56 157.24,64.48 158.75,65.21 C162.26,66.89 162.42,69.56 159.00,69.33 C157.62,69.24 154.28,68.63 151.57,67.96 C142.74,65.81 131.72,70.05 127.98,77.03 C127.10,78.68 127.33,78.71 131.68,77.40 C139.59,75.01 147.00,76.01 147.00,79.46 C147.00,80.51 145.42,80.84 140.64,80.81 C137.15,80.79 133.35,81.28 132.21,81.89 C131.07,82.50 126.71,83.00 122.53,83.00 C114.15,83.00 110.20,84.26 105.10,88.56 C101.69,91.44 96.00,98.63 96.00,100.07 C96.00,100.49 97.56,100.71 99.46,100.56 C101.36,100.41 104.70,101.08 106.88,102.06 L 110.85 103.83 L 114.87 100.01 C117.08,97.90 120.30,95.87 122.02,95.49 C128.38,94.10 136.04,97.36 133.16,100.24 C132.28,101.12 131.14,101.09 128.46,100.12 C125.36,99.00 124.47,99.08 121.25,100.75 C116.29,103.33 112.81,109.92 113.21,115.99 C113.45,119.71 113.87,120.55 115.63,120.80 C116.80,120.97 119.46,119.95 121.55,118.53 C123.64,117.11 127.85,115.28 130.92,114.45 C133.99,113.62 137.62,112.39 139.00,111.71 C142.68,109.90 146.00,102.61 146.00,96.36 C146.00,90.37 148.27,86.82 150.58,89.18 C152.33,90.95 150.00,104.64 147.13,109.51 L 145.10 112.95 L 149.30 114.02 C155.85,115.70 156.17,115.88 155.79,117.75 C155.55,118.96 154.68,119.40 152.97,119.18 C151.61,119.01 146.59,118.63 141.80,118.34 C134.02,117.86 132.54,118.06 127.70,120.28 C121.75,123.01 117.45,127.79 115.89,133.42 C115.19,135.97 114.34,137.00 112.95,137.00 C110.61,137.00 110.52,135.62 112.50,130.00 C113.32,127.66 114.00,125.63 114.00,125.48 C114.00,125.33 112.35,125.58 110.33,126.04 C105.08,127.22 101.90,129.95 98.75,135.97 C94.94,143.25 95.03,149.76 99.08,159.83 C101.65,166.24 102.05,168.33 101.53,172.55 L 100.91 177.60 L 105.20 178.55 C107.86,179.14 109.61,180.12 109.80,181.12 C110.21,183.33 107.51,184.19 104.49,182.81 C99.58,180.58 91.01,185.14 87.64,191.78 C86.88,193.28 85.94,196.75 85.54,199.50 C84.59,206.16 82.23,211.00 79.95,211.00 C77.04,211.00 76.74,209.28 79.08,206.10 C80.89,203.65 81.18,202.20 80.79,197.50 C80.38,192.49 79.85,191.38 76.15,187.68 C72.37,183.90 71.49,183.50 67.04,183.50 C62.79,183.50 61.63,183.97 58.62,186.88 C56.70,188.74 54.62,191.67 53.98,193.38 C53.35,195.10 52.43,197.18 51.93,198.00 C48.01,204.46 45.67,210.18 45.04,214.78 C44.30,220.23 45.35,228.91 47.14,232.27 C48.06,233.98 48.22,233.95 49.90,231.87 C51.04,230.47 52.29,229.90 53.34,230.30 C54.86,230.88 54.82,231.37 52.97,236.07 C49.13,245.81 49.42,257.88 53.71,266.34 C55.09,269.08 55.21,269.12 57.10,267.41 C60.43,264.40 61.38,266.88 59.45,273.53 C56.96,282.09 57.79,293.01 61.44,299.72 C65.09,306.41 73.34,313.00 78.08,313.00 C79.75,313.00 73.86,302.63 70.27,299.23 C66.85,295.99 66.41,293.00 69.35,293.00 C71.29,293.00 77.44,299.98 80.10,305.20 C84.90,314.63 90.36,319.49 97.00,320.24 C99.66,320.54 100.50,321.10 100.50,322.57 C100.50,325.86 92.98,325.04 87.58,321.16 C81.94,317.11 79.71,316.98 80.64,320.75 C84.02,334.32 93.69,343.79 104.51,344.11 C107.87,344.21 114.03,342.69 113.99,341.77 C113.98,341.62 113.33,339.35 112.53,336.73 C111.73,334.10 111.34,331.29 111.65,330.48 C112.34,328.68 114.93,328.52 115.42,330.25 C115.61,330.94 116.28,333.39 116.91,335.70 C118.42,341.25 122.19,345.59 126.78,347.05 C131.84,348.67 132.75,349.68 130.85,351.58 C129.43,353.00 128.92,353.00 125.41,351.52 C123.27,350.63 120.56,348.99 119.37,347.88 C117.31,345.94 117.01,345.92 112.57,347.42 C110.02,348.29 107.30,349.00 106.53,349.00 C104.66,349.00 105.96,353.54 110.11,361.50 C117.80,376.27 130.04,384.71 144.37,385.14 C149.63,385.30 150.71,385.72 154.70,389.17 C159.31,393.16 163.67,395.75 167.99,397.07 C172.29,398.37 182.93,398.09 185.80,396.59 ZM 97.33 172.11 C97.79,169.81 97.11,166.84 94.85,161.23 C89.93,148.99 90.74,138.48 97.28,129.79 C99.09,127.39 102.40,124.62 104.78,123.50 C108.59,121.72 109.01,121.18 108.67,118.57 C108.46,116.95 108.62,114.16 109.03,112.37 C110.14,107.45 107.46,105.50 99.63,105.52 C94.73,105.53 92.51,106.09 88.76,108.29 C79.78,113.56 73.61,124.69 72.47,137.70 L 71.87 144.50 L 74.53 141.50 C77.21,138.46 79.34,134.24 82.37,125.92 C84.37,120.42 88.94,115.66 91.34,116.58 C93.69,117.48 93.40,119.10 90.46,121.46 C88.96,122.66 86.88,126.37 85.40,130.50 C84.01,134.35 81.23,139.89 79.23,142.81 C76.21,147.21 75.52,149.18 75.19,154.36 C74.83,159.99 75.06,160.92 77.50,163.81 C81.25,168.28 79.51,172.36 75.54,168.40 C72.75,165.61 70.00,159.21 70.00,155.51 L 70.00 151.95 L 67.25 153.39 C59.09,157.67 52.09,169.69 51.25,180.86 L 50.75 187.50 L 54.13 184.37 C58.74,180.09 61.49,178.83 66.38,178.75 C71.76,178.67 77.45,181.41 80.66,185.62 L 83.21 188.97 L 89.95 182.12 C94.34,177.66 96.92,174.16 97.33,172.11 ZM 224.20 401.80 C222.50,400.10 222.70,395.05 224.50,394.36 C225.70,393.90 226.00,391.71 226.00,383.39 C226.00,374.82 226.26,373.00 227.50,373.00 C228.74,373.00 229.00,374.82 229.00,383.38 C229.00,391.38 229.34,394.04 230.50,395.00 C232.61,396.75 232.37,400.73 230.07,401.96 C227.52,403.33 225.67,403.27 224.20,401.80 ZM 229.00 398.67 C229.00,397.93 228.70,397.04 228.34,396.68 C227.44,395.77 224.89,398.01 225.57,399.11 C226.42,400.49 229.00,400.16 229.00,398.67 ZM 246.00 401.00 C244.90,399.90 244.00,398.55 244.00,398.00 C244.00,397.45 244.90,396.10 246.00,395.00 C247.94,393.06 248.00,391.66 248.01,350.25 L 248.02 307.50 L 253.51 303.69 L 259.00 299.88 L 259.00 292.91 L 259.00 285.93 L 237.25 286.04 C218.18,286.14 215.46,285.96 215.18,284.58 C214.89,283.18 217.48,283.00 238.43,283.00 L 262.00 283.00 L 262.00 291.96 L 262.00 300.92 L 256.60 304.71 C251.69,308.15 251.15,308.91 250.67,313.00 C250.39,315.48 250.38,334.60 250.65,355.50 C251.06,386.40 251.42,393.80 252.58,395.08 C254.59,397.32 254.34,400.75 252.07,401.96 C249.32,403.44 248.27,403.27 246.00,401.00 ZM 250.82 397.67 C251.01,396.70 250.51,396.00 249.63,396.00 C247.77,396.00 246.65,397.63 247.53,399.05 C248.44,400.52 250.43,399.68 250.82,397.67 ZM 199.45 399.91 C198.42,398.25 200.73,396.33 202.11,397.71 C203.27,398.87 202.54,401.00 201.00,401.00 C200.51,401.00 199.82,400.51 199.45,399.91 ZM 210.61 398.53 C209.15,396.29 209.00,380.66 209.00,226.45 C209.00,91.20 209.25,56.92 210.25,57.25 C211.24,57.58 211.55,92.61 211.74,227.08 C211.90,340.40 212.31,396.60 212.99,396.83 C214.24,397.25 214.32,399.68 213.11,400.43 C212.62,400.74 211.49,399.88 210.61,398.53 ZM 267.75 398.92 C264.39,396.96 266.58,390.00 270.55,390.00 C271.72,390.00 272.01,386.03 272.23,367.25 C272.40,352.93 272.87,344.50 273.50,344.50 C274.14,344.50 274.58,354.05 274.72,370.71 C274.91,393.18 274.72,397.14 273.40,398.46 C271.62,400.24 270.21,400.35 267.75,398.92 ZM 272.00 395.00 C272.00,393.89 271.33,393.00 270.50,393.00 C269.67,393.00 269.00,393.89 269.00,395.00 C269.00,396.11 269.67,397.00 270.50,397.00 C271.33,397.00 272.00,396.11 272.00,395.00 ZM 317.45 397.91 C317.08,397.31 317.24,396.36 317.80,395.80 C319.06,394.54 321.00,395.60 321.00,397.56 C321.00,399.24 318.43,399.50 317.45,397.91 ZM 280.69 390.54 C279.49,389.35 279.23,384.51 279.22,363.17 C279.21,346.20 278.83,336.55 278.10,335.19 C276.31,331.84 278.31,328.00 281.85,328.00 C283.45,328.00 285.31,328.67 285.99,329.49 C287.66,331.50 286.47,335.72 284.00,336.50 C282.25,337.05 282.00,338.02 282.00,344.07 C282.00,347.88 282.37,351.00 282.83,351.00 C283.28,351.00 284.63,349.96 285.83,348.69 C287.85,346.53 288.00,345.38 288.00,331.82 C288.00,318.48 287.82,317.04 285.87,314.56 L 283.73 311.85 L 279.37 316.13 C275.01,320.40 275.00,320.44 275.00,327.61 L 275.00 334.80 L 269.00 340.00 L 263.00 345.20 L 263.00 362.60 C263.00,377.40 263.22,380.00 264.50,380.00 C265.78,380.00 266.00,377.39 266.00,362.50 C266.00,347.61 266.22,345.00 267.50,345.00 C268.78,345.00 269.00,347.93 269.00,365.35 C269.00,383.78 268.83,385.85 267.17,387.35 C265.01,389.30 261.44,389.51 260.33,387.75 C259.90,387.06 259.67,377.05 259.82,365.50 L 260.10 344.50 L 266.07 339.00 L 272.05 333.50 L 272.02 326.54 C272.00,319.87 272.15,319.43 275.66,315.84 L 279.31 312.10 L 279.41 293.38 C279.48,279.37 279.81,274.56 280.75,274.25 C281.72,273.93 282.00,277.68 282.00,290.85 L 282.00 307.87 L 286.50 311.55 L 291.00 315.24 L 291.00 331.57 L 291.00 347.90 L 286.50 351.66 L 282.00 355.42 L 282.00 368.71 C282.00,379.86 282.24,382.00 283.50,382.00 C285.40,382.00 289.00,385.55 289.00,387.43 C289.00,391.22 283.45,393.31 280.69,390.54 ZM 285.55 387.91 C286.58,386.25 284.27,384.33 282.89,385.71 C281.73,386.87 282.46,389.00 284.00,389.00 C284.49,389.00 285.18,388.51 285.55,387.91 ZM 265.32 385.34 C265.69,384.98 265.48,384.07 264.86,383.33 C264.01,382.31 263.40,382.26 262.38,383.10 C261.63,383.72 261.27,384.63 261.57,385.11 C262.21,386.15 264.38,386.29 265.32,385.34 ZM 284.00 332.56 C284.00,330.60 282.06,329.54 280.80,330.80 C280.24,331.36 280.08,332.31 280.45,332.91 C281.43,334.50 284.00,334.24 284.00,332.56 ZM 232.98 388.98 C230.61,386.61 230.55,385.97 232.47,383.44 C233.28,382.37 233.95,380.80 233.97,379.95 C233.99,379.09 235.57,376.87 237.49,375.01 L 240.97 371.63 L 241.24 336.65 C241.44,309.74 241.79,301.57 242.75,301.25 C243.73,300.92 244.00,308.44 244.00,336.62 L 244.00 372.42 L 240.47 376.03 L 236.95 379.64 L 238.97 381.97 C241.32,384.67 241.49,386.01 239.75,388.17 C237.63,390.80 235.10,391.10 232.98,388.98 ZM 238.00 385.44 C238.00,383.97 235.87,383.47 234.68,384.66 C233.77,385.56 236.01,388.11 237.11,387.43 C237.60,387.13 238.00,386.23 238.00,385.44 ZM 339.59 389.50 C337.80,384.39 336.24,382.44 333.23,381.54 C329.61,380.47 328.92,379.00 332.05,379.00 C334.90,379.00 339.00,374.60 339.00,371.55 C339.00,367.77 340.81,368.46 341.57,372.52 C342.26,376.18 345.15,379.00 348.22,379.00 C349.20,379.00 350.00,379.45 350.00,380.00 C350.00,380.55 349.19,381.00 348.19,381.00 C345.23,381.00 342.68,383.51 341.45,387.63 C340.47,390.88 340.17,391.18 339.59,389.50 ZM 341.52 379.04 C341.01,378.20 340.44,378.22 339.36,379.11 C338.20,380.08 338.16,380.48 339.19,381.12 C340.79,382.10 342.48,380.59 341.52,379.04 ZM 95.00 386.50 C95.00,385.67 94.32,385.00 93.50,385.00 C92.68,385.00 92.00,384.55 92.00,384.00 C92.00,383.45 92.68,383.00 93.50,383.00 C94.32,383.00 95.00,382.33 95.00,381.50 C95.00,380.67 95.45,380.00 96.00,380.00 C96.55,380.00 97.00,380.67 97.00,381.50 C97.00,382.33 97.68,383.00 98.50,383.00 C99.32,383.00 100.00,383.45 100.00,384.00 C100.00,384.55 99.32,385.00 98.50,385.00 C97.68,385.00 97.00,385.67 97.00,386.50 C97.00,387.33 96.55,388.00 96.00,388.00 C95.45,388.00 95.00,387.33 95.00,386.50 ZM 216.45 385.91 C215.42,384.25 217.73,382.33 219.11,383.71 C220.27,384.87 219.54,387.00 218.00,387.00 C217.51,387.00 216.82,386.51 216.45,385.91 ZM 299.75 381.92 C297.77,380.76 297.39,376.01 299.15,374.25 C299.98,373.42 300.24,363.29 300.10,337.80 L 299.90 302.50 L 296.53 299.00 L 293.16 295.50 L 293.04 280.75 C292.93,268.08 293.13,266.00 294.46,266.00 C295.78,266.00 296.00,268.08 296.00,280.30 L 296.00 294.61 L 299.50 298.00 L 303.00 301.39 L 303.00 337.04 C303.00,371.42 303.07,372.75 305.00,374.50 C307.62,376.87 307.54,379.51 304.78,381.44 C302.19,383.25 302.06,383.27 299.75,381.92 ZM 303.55 378.91 C304.58,377.25 302.27,375.33 300.89,376.71 C299.73,377.87 300.46,380.00 302.00,380.00 C302.49,380.00 303.18,379.51 303.55,378.91 ZM 220.68 381.35 C220.31,380.97 220.00,371.32 220.00,359.90 C220.00,340.02 219.91,339.11 218.00,338.50 C214.84,337.50 214.23,333.04 216.96,330.83 C219.83,328.51 220.53,328.53 223.08,331.08 C224.51,332.51 224.90,333.67 224.33,334.83 C223.87,335.75 223.37,346.39 223.21,358.49 C222.94,378.85 222.47,383.14 220.68,381.35 ZM 221.57 334.89 C222.43,333.49 219.83,331.77 218.65,332.95 C217.68,333.92 218.61,336.00 220.00,336.00 C220.49,336.00 221.19,335.50 221.57,334.89 ZM 253.00 378.00 C253.00,376.49 253.52,375.95 254.75,376.19 C255.71,376.38 256.50,377.19 256.50,378.00 C256.50,378.81 255.71,379.62 254.75,379.81 C253.52,380.05 253.00,379.51 253.00,378.00 ZM 285.43 374.92 C283.64,372.94 283.63,372.71 285.28,369.84 C286.22,368.19 287.00,366.39 287.00,365.84 C287.00,365.29 288.58,362.91 290.50,360.57 L 294.00 356.29 L 294.00 332.44 L 294.00 308.58 L 290.54 305.04 L 287.09 301.50 L 287.00 285.50 C286.95,276.70 286.93,268.71 286.95,267.75 C286.98,266.79 287.68,266.00 288.51,266.00 C289.79,266.00 290.00,268.49 289.92,283.12 L 289.83 300.24 L 293.41 303.91 L 297.00 307.58 L 297.00 332.37 L 297.00 357.16 L 293.43 361.52 L 289.85 365.88 L 292.08 368.89 C294.19,371.75 294.22,372.02 292.63,374.45 C290.60,377.54 287.96,377.71 285.43,374.92 ZM 290.55 372.91 C291.58,371.25 289.27,369.33 287.89,370.71 C286.73,371.87 287.46,374.00 289.00,374.00 C289.49,374.00 290.18,373.51 290.55,372.91 ZM 230.64 372.31 C229.44,371.11 229.99,369.00 231.50,369.00 C232.32,369.00 233.00,369.65 233.00,370.44 C233.00,372.11 231.57,373.24 230.64,372.31 ZM 253.03 343.64 L 253.11 314.27 L 255.80 311.80 C257.29,310.44 259.96,308.32 261.75,307.09 L 265.00 304.86 L 265.00 292.43 L 265.00 280.00 L 241.75 279.88 C228.96,279.82 217.75,279.84 216.84,279.93 C215.14,280.10 213.38,278.29 214.33,277.34 C214.62,277.05 226.14,276.87 239.93,276.95 C264.48,277.08 265.00,277.04 265.00,275.06 C265.00,273.09 264.35,273.03 239.75,272.77 C223.76,272.60 214.50,272.13 214.50,271.50 C214.50,270.86 224.26,270.40 241.25,270.23 L 268.00 269.97 L 268.00 287.93 L 268.00 305.88 L 262.00 310.50 L 256.00 315.12 L 256.00 344.06 C256.00,369.33 255.81,373.00 254.48,373.00 C253.14,373.00 252.96,369.32 253.03,343.64 ZM 310.57 369.43 C308.35,367.21 308.61,365.26 311.50,362.59 C313.76,360.49 314.00,359.51 314.00,352.36 L 314.00 344.46 L 322.50 336.00 L 331.00 327.54 L 331.01 300.02 L 331.02 272.50 L 327.78 269.84 C324.88,267.46 324.65,266.89 325.54,264.34 C326.32,262.13 327.25,261.43 329.76,261.19 C332.37,260.93 333.20,261.34 334.10,263.31 C334.91,265.09 334.91,266.30 334.10,267.81 C333.37,269.18 333.00,279.91 333.00,299.85 C333.00,316.34 332.66,329.99 332.25,330.17 C331.84,330.36 328.08,334.11 323.90,338.51 L 316.29 346.50 L 316.10 354.09 C315.95,359.89 316.27,361.98 317.45,362.96 C320.53,365.52 318.18,371.00 314.00,371.00 C312.98,371.00 311.44,370.29 310.57,369.43 ZM 315.50 365.99 C315.50,363.84 312.59,364.15 312.17,366.34 C311.92,367.68 312.32,368.08 313.66,367.83 C314.67,367.63 315.50,366.80 315.50,365.99 ZM 331.30 265.51 C331.41,264.97 330.71,264.38 329.75,264.19 C328.66,263.98 328.00,264.47 328.00,265.50 C328.00,267.24 330.96,267.25 331.30,265.51 ZM 81.00 367.56 C81.00,366.77 81.40,365.87 81.89,365.57 C82.99,364.89 85.23,367.44 84.32,368.34 C83.13,369.53 81.00,369.03 81.00,367.56 ZM 384.45 367.91 C383.42,366.25 385.73,364.33 387.11,365.71 C388.27,366.87 387.54,369.00 386.00,369.00 C385.51,369.00 384.82,368.51 384.45,367.91 ZM 226.50 363.64 C224.80,361.05 225.31,358.48 227.69,357.56 C228.97,357.08 229.17,355.31 228.87,347.26 L 228.50 337.55 L 231.25 336.22 L 234.00 334.89 L 234.00 321.57 L 234.00 308.25 L 230.06 303.95 C227.90,301.58 224.64,299.16 222.81,298.57 C220.07,297.69 219.50,297.00 219.50,294.61 C219.50,291.11 221.76,289.47 225.35,290.37 C227.51,290.92 228.00,291.61 228.00,294.17 C228.00,296.48 229.14,298.51 232.36,301.95 L 236.72 306.61 L 236.59 325.06 C236.46,343.12 236.42,343.52 234.23,344.49 C232.30,345.34 232.00,346.24 232.00,351.11 C232.00,354.91 232.49,357.16 233.50,358.00 C235.44,359.61 235.41,362.44 233.43,364.43 C231.17,366.69 228.28,366.36 226.50,363.64 ZM 232.00 361.67 C232.00,360.93 231.70,360.04 231.34,359.68 C230.44,358.77 227.89,361.01 228.57,362.11 C229.42,363.49 232.00,363.16 232.00,361.67 ZM 234.43 339.89 C233.58,338.51 231.00,338.84 231.00,340.33 C231.00,341.07 231.30,341.96 231.66,342.32 C232.56,343.23 235.11,340.99 234.43,339.89 ZM 225.00 293.92 C225.00,291.48 222.66,291.82 222.18,294.33 C221.99,295.32 222.50,296.00 223.43,296.00 C224.35,296.00 225.00,295.14 225.00,293.92 ZM 330.75 359.92 C328.61,358.67 328.46,354.69 330.50,353.00 C331.55,352.13 332.01,349.78 332.02,345.13 L 332.04 338.50 L 337.52 333.02 L 343.00 327.55 L 343.00 295.06 L 343.00 262.57 L 338.29 257.79 C334.98,254.43 333.90,252.70 334.65,251.95 C335.39,251.21 337.23,252.47 340.84,256.20 L 345.98 261.50 L 345.99 295.03 L 346.00 328.57 L 340.50 334.00 C335.01,339.42 335.00,339.45 335.00,345.61 C335.00,350.18 335.39,351.94 336.50,352.36 C338.30,353.05 338.50,358.10 336.80,359.80 C335.35,361.25 333.11,361.29 330.75,359.92 ZM 335.26 357.40 C336.24,356.43 334.90,354.00 333.39,354.00 C332.63,354.00 332.00,354.90 332.00,356.00 C332.00,357.88 333.95,358.72 335.26,357.40 ZM 370.69 360.35 C369.31,358.98 370.03,356.86 371.75,357.19 C372.71,357.38 373.50,358.16 373.50,358.93 C373.50,360.51 371.74,361.40 370.69,360.35 ZM 307.64 357.30 C307.25,356.92 306.97,345.56 307.00,332.05 C307.12,287.03 307.39,291.30 304.25,289.80 C299.47,287.51 300.39,281.00 305.50,281.00 C306.74,281.00 308.23,281.57 308.81,282.27 C310.11,283.84 310.48,358.00 309.19,358.00 C308.72,358.00 308.02,357.69 307.64,357.30 ZM 307.26 286.40 C307.59,286.07 307.63,285.20 307.35,284.47 C306.71,282.79 304.00,283.72 304.00,285.61 C304.00,287.00 306.14,287.52 307.26,286.40 ZM 54.14 341.06 C53.20,337.94 52.24,336.85 49.53,335.87 C46.04,334.61 45.69,333.00 48.90,333.00 C51.19,333.00 53.65,330.26 54.53,326.75 C55.36,323.42 57.00,323.11 57.00,326.28 C57.00,329.66 59.76,333.00 62.56,333.00 C65.76,333.00 65.70,334.79 62.48,335.60 C59.47,336.35 57.00,339.56 57.00,342.72 C57.00,346.30 55.43,345.39 54.14,341.06 ZM 57.00 334.50 C57.00,333.67 56.58,333.00 56.06,333.00 C54.80,333.00 53.89,334.56 54.69,335.36 C55.82,336.49 57.00,336.05 57.00,334.50 ZM 349.83 341.75 C347.20,339.63 346.90,337.10 349.02,334.98 C350.92,333.08 351.00,331.53 351.00,296.36 L 351.00 259.72 L 345.42 253.36 L 339.83 247.00 L 333.92 247.00 C329.32,247.00 328.00,246.66 328.00,245.50 C328.00,244.33 329.35,244.00 334.17,244.00 L 340.34 244.00 L 346.67 250.25 L 353.00 256.49 L 353.00 294.52 C353.00,331.32 353.07,332.61 355.00,334.27 C357.40,336.32 357.58,339.28 355.43,341.43 C353.53,343.33 351.90,343.42 349.83,341.75 ZM 353.82 337.67 C354.01,336.70 353.51,336.00 352.63,336.00 C350.77,336.00 349.65,337.63 350.53,339.05 C351.44,340.52 353.43,339.68 353.82,337.67 ZM 375.00 337.67 C375.00,335.79 375.96,335.05 377.60,335.68 C379.72,336.49 379.27,339.00 377.00,339.00 C375.90,339.00 375.00,338.40 375.00,337.67 ZM 260.20 334.80 C258.87,333.47 258.63,330.08 259.77,328.43 C262.06,325.07 268.00,327.18 268.00,331.36 C268.00,334.17 266.23,336.00 263.50,336.00 C262.35,336.00 260.86,335.46 260.20,334.80 ZM 264.81 331.25 C264.40,329.14 262.63,329.28 262.18,331.45 C261.99,332.35 262.54,333.00 263.50,333.00 C264.53,333.00 265.02,332.34 264.81,331.25 ZM 316.99 328.49 C315.10,326.21 316.85,321.60 319.77,321.18 L 322.00 320.86 L 322.00 298.43 L 322.00 276.00 L 318.10 272.10 C315.26,269.26 314.50,267.90 315.30,267.10 C316.97,265.43 317.31,265.64 321.23,270.78 L 324.87 275.55 L 324.31 298.11 C323.97,311.86 324.13,321.41 324.72,322.58 C325.25,323.64 325.40,325.62 325.05,327.00 C324.27,330.08 319.11,331.04 316.99,328.49 ZM 323.00 325.50 C323.00,324.67 322.11,324.00 321.00,324.00 C319.89,324.00 319.00,324.67 319.00,325.50 C319.00,326.33 319.89,327.00 321.00,327.00 C322.11,327.00 323.00,326.33 323.00,325.50 ZM 357.53 328.04 C356.45,326.84 356.02,325.39 356.43,324.32 C356.80,323.35 357.07,308.49 357.03,291.28 C356.96,263.50 357.13,260.00 358.52,260.00 C359.38,260.00 360.01,260.56 359.93,261.25 C359.84,261.94 359.82,275.45 359.88,291.27 L 360.00 320.05 L 362.41 320.97 C365.69,322.21 366.66,325.62 364.44,328.07 C362.21,330.54 359.78,330.52 357.53,328.04 ZM 362.55 325.91 C363.58,324.25 361.27,322.33 359.89,323.71 C358.73,324.87 359.46,327.00 361.00,327.00 C361.49,327.00 362.18,326.51 362.55,325.91 ZM 224.53 327.05 C223.65,325.63 224.77,324.00 226.63,324.00 C227.51,324.00 228.01,324.70 227.82,325.67 C227.43,327.68 225.44,328.52 224.53,327.05 ZM 219.68 325.35 C219.31,324.97 219.00,321.59 219.00,317.83 C219.00,312.50 218.68,311.00 217.54,311.00 C216.73,311.00 215.57,310.07 214.96,308.93 C213.58,306.34 216.07,302.00 218.95,302.00 C221.87,302.00 224.29,304.92 223.42,307.40 C223.02,308.55 222.50,312.88 222.27,317.00 C221.86,324.28 221.09,326.76 219.68,325.35 ZM 221.00 306.50 C221.00,305.67 220.35,305.00 219.56,305.00 C217.89,305.00 216.76,306.43 217.69,307.36 C218.89,308.56 221.00,308.01 221.00,306.50 ZM 265.42 321.66 C264.62,319.56 266.44,316.53 270.07,313.95 C272.79,312.01 273.12,311.25 272.98,307.13 C272.89,304.59 272.86,294.29 272.91,284.25 C272.98,270.36 273.30,266.00 274.25,266.00 C275.22,266.00 275.43,271.25 275.19,289.75 L 274.88 313.50 L 271.70 316.17 C269.95,317.64 268.51,319.63 268.51,320.59 C268.50,322.82 266.18,323.63 265.42,321.66 ZM 363.37 314.45 C362.12,312.53 361.99,311.61 362.85,310.75 C363.68,309.92 364.00,299.01 363.98,272.05 L 363.97 234.50 L 360.23 230.25 L 356.50 225.99 L 342.25 226.00 C330.25,226.00 328.00,225.76 328.00,224.50 C328.00,223.23 330.32,223.00 342.86,223.00 L 357.73 223.00 L 362.36 227.96 L 367.00 232.91 L 367.00 270.22 L 367.00 307.53 L 369.25 308.51 C370.49,309.06 371.65,310.54 371.83,311.81 C372.57,317.04 366.34,318.98 363.37,314.45 ZM 369.00 312.67 C369.00,311.93 368.70,311.04 368.34,310.68 C367.44,309.77 364.89,312.01 365.57,313.11 C366.42,314.49 369.00,314.16 369.00,312.67 ZM 395.45 315.91 C395.08,315.31 395.24,314.36 395.80,313.80 C397.06,312.54 399.00,313.60 399.00,315.56 C399.00,317.24 396.43,317.50 395.45,315.91 ZM 337.00 305.58 C337.00,296.65 337.24,295.00 338.56,295.00 C339.90,295.00 340.08,296.48 339.81,305.17 C339.60,312.18 339.11,315.47 338.25,315.75 C337.30,316.07 337.00,313.60 337.00,305.58 ZM 313.00 307.43 C313.00,306.50 313.68,305.99 314.67,306.18 C317.18,306.66 317.52,309.00 315.08,309.00 C313.86,309.00 313.00,308.35 313.00,307.43 ZM 29.66 303.32 C29.30,302.96 29.00,302.07 29.00,301.33 C29.00,299.84 31.58,299.51 32.43,300.89 C33.11,301.99 30.56,304.23 29.66,303.32 ZM 313.43 301.68 C312.35,298.87 313.48,279.67 314.75,279.25 C315.70,278.93 316.00,281.70 316.00,290.92 C316.00,298.55 315.62,303.00 314.97,303.00 C314.40,303.00 313.71,302.41 313.43,301.68 ZM 370.51 301.37 C369.46,300.32 369.17,299.17 369.69,298.12 C370.14,297.23 370.62,280.25 370.77,260.39 C371.01,229.04 370.85,224.12 369.52,223.02 C367.93,221.70 367.58,219.26 368.61,216.58 C369.38,214.57 374.34,214.50 375.99,216.49 C377.34,218.12 376.58,223.00 374.98,223.00 C374.36,223.00 374.00,235.88 374.00,258.26 L 374.00 293.53 L 376.25 294.51 C378.82,295.64 379.73,299.41 377.95,301.56 C376.35,303.48 372.53,303.39 370.51,301.37 ZM 376.00 298.50 C376.00,297.67 375.33,297.00 374.50,297.00 C373.67,297.00 373.00,297.67 373.00,298.50 C373.00,299.33 373.67,300.00 374.50,300.00 C375.33,300.00 376.00,299.33 376.00,298.50 ZM 374.00 219.67 C374.00,218.93 373.70,218.04 373.34,217.68 C372.44,216.77 369.89,219.01 370.57,220.11 C371.42,221.49 374.00,221.16 374.00,219.67 ZM 241.95 298.44 C241.03,297.33 240.93,296.11 241.60,294.19 C243.29,289.35 251.00,290.52 251.00,295.62 C251.00,299.37 244.42,301.42 241.95,298.44 ZM 248.00 295.50 C248.00,294.67 247.11,294.00 246.00,294.00 C244.01,294.00 243.40,295.07 244.67,296.33 C245.88,297.55 248.00,297.02 248.00,295.50 ZM 336.65 291.53 C335.95,289.69 337.82,288.42 339.20,289.80 C340.27,290.87 339.50,293.00 338.05,293.00 C337.59,293.00 336.96,292.34 336.65,291.53 ZM 378.75 287.92 C376.04,286.34 376.72,280.00 379.61,280.00 C381.67,280.00 381.58,265.72 379.50,264.00 C375.38,260.58 380.09,254.37 384.87,256.93 C387.41,258.29 387.85,263.74 385.50,264.64 C384.36,265.08 384.00,266.95 384.00,272.55 C384.00,276.58 384.45,280.16 385.00,280.50 C386.79,281.61 386.14,286.86 384.07,287.96 C381.70,289.23 380.99,289.22 378.75,287.92 ZM 383.55 284.91 C384.58,283.25 382.27,281.33 380.89,282.71 C379.73,283.87 380.46,286.00 382.00,286.00 C382.49,286.00 383.18,285.51 383.55,284.91 ZM 384.75 260.75 C384.12,258.86 381.00,258.59 381.00,260.43 C381.00,261.35 381.86,262.00 383.08,262.00 C384.31,262.00 384.99,261.48 384.75,260.75 ZM 403.00 283.56 C403.00,282.77 403.40,281.87 403.89,281.57 C404.99,280.89 407.23,283.44 406.32,284.34 C405.13,285.53 403.00,285.03 403.00,283.56 ZM 313.45 276.91 C312.42,275.25 314.73,273.33 316.11,274.71 C317.27,275.87 316.54,278.00 315.00,278.00 C314.51,278.00 313.82,277.51 313.45,276.91 ZM 34.00 271.50 C34.00,270.47 34.66,269.98 35.75,270.19 C37.86,270.60 37.72,272.37 35.55,272.82 C34.65,273.01 34.00,272.46 34.00,271.50 ZM 279.62 272.20 C278.75,270.78 280.48,269.06 281.90,269.94 C282.65,270.40 282.95,271.28 282.57,271.89 C281.77,273.19 280.33,273.34 279.62,272.20 ZM 300.45 268.91 C299.42,267.25 301.73,265.33 303.11,266.71 C304.27,267.87 303.54,270.00 302.00,270.00 C301.51,270.00 300.82,269.51 300.45,268.91 ZM 307.18 268.45 C307.63,266.28 309.40,266.14 309.81,268.25 C310.02,269.34 309.53,270.00 308.50,270.00 C307.54,270.00 306.99,269.35 307.18,268.45 ZM 214.68 265.34 C214.31,264.98 214.42,264.19 214.92,263.59 C215.54,262.84 223.40,262.59 239.91,262.78 C260.27,263.03 264.00,263.30 264.00,264.53 C264.00,265.78 260.37,266.00 239.67,266.00 C226.28,266.00 215.04,265.70 214.68,265.34 ZM 272.88 263.75 C272.82,263.06 272.85,261.71 272.95,260.75 C273.05,259.79 272.68,259.00 272.13,259.00 C271.54,259.00 271.36,257.56 271.68,255.56 L 272.24 252.11 L 266.87 251.81 L 261.50 251.50 L 261.50 226.00 L 261.50 200.50 L 266.87 200.19 L 272.25 199.89 L 271.72 195.94 C271.43,193.77 271.57,191.77 272.03,191.48 C272.49,191.20 272.83,189.62 272.78,187.98 C272.71,185.51 272.28,185.00 270.26,185.00 C268.76,185.00 267.99,184.52 268.25,183.75 C268.57,182.80 275.62,182.44 298.08,182.25 C324.34,182.02 327.63,181.81 328.75,180.31 C329.63,179.11 330.00,173.66 330.00,161.66 L 330.00 144.71 L 325.48 139.87 L 320.95 135.04 L 321.23 118.02 C321.59,95.17 323.34,94.97 324.00,117.71 L 324.50 134.92 L 328.75 139.25 L 333.00 143.58 L 333.00 161.38 C333.00,177.78 332.84,179.42 330.93,182.10 C328.90,184.95 328.70,185.00 319.43,185.00 L 310.00 185.00 L 310.00 188.44 C310.00,191.58 310.27,191.90 313.25,192.19 C316.28,192.48 316.50,192.75 316.50,196.25 C316.50,200.00 316.51,200.00 320.75,200.00 L 325.00 200.00 L 325.12 207.75 C325.19,212.01 325.41,220.00 325.61,225.50 C325.81,231.00 325.71,239.21 325.39,243.75 L 324.82 252.00 L 320.97 252.00 C317.37,252.00 317.11,252.20 316.81,255.25 C316.55,257.98 316.02,258.57 313.50,259.00 C311.11,259.41 310.43,260.08 310.18,262.31 C309.78,265.80 307.62,265.34 307.18,261.67 C306.96,259.81 306.28,259.00 304.93,259.00 C303.44,259.00 303.00,259.70 303.00,262.08 C303.00,265.91 300.64,265.57 300.18,261.67 C299.96,259.81 299.28,259.00 297.93,259.00 C296.44,259.00 296.00,259.70 296.00,262.08 C296.00,265.91 293.64,265.57 293.18,261.67 C292.96,259.81 292.28,259.00 290.93,259.00 C289.44,259.00 289.00,259.70 289.00,262.08 C289.00,265.91 286.64,265.57 286.18,261.67 C285.96,259.81 285.28,259.00 283.93,259.00 C282.44,259.00 282.00,259.70 282.00,262.08 C282.00,264.11 281.57,265.02 280.75,264.75 C280.06,264.51 279.49,263.24 279.48,261.91 C279.47,260.18 278.84,259.41 277.23,259.18 C275.34,258.91 275.00,259.32 275.00,261.93 C275.00,264.82 273.13,266.43 272.88,263.75 ZM 279.00 254.00 C279.00,252.90 278.40,252.00 277.67,252.00 C275.79,252.00 275.05,252.96 275.68,254.60 C276.49,256.72 279.00,256.27 279.00,254.00 ZM 286.00 254.00 C286.00,252.89 285.33,252.00 284.50,252.00 C283.67,252.00 283.00,252.89 283.00,254.00 C283.00,255.11 283.67,256.00 284.50,256.00 C285.33,256.00 286.00,255.11 286.00,254.00 ZM 293.00 254.00 C293.00,252.89 292.33,252.00 291.50,252.00 C290.67,252.00 290.00,252.89 290.00,254.00 C290.00,255.11 290.67,256.00 291.50,256.00 C292.33,256.00 293.00,255.11 293.00,254.00 ZM 300.00 254.00 C300.00,252.89 299.33,252.00 298.50,252.00 C297.67,252.00 297.00,252.89 297.00,254.00 C297.00,255.11 297.67,256.00 298.50,256.00 C299.33,256.00 300.00,255.11 300.00,254.00 ZM 307.00 254.00 C307.00,252.89 306.33,252.00 305.50,252.00 C304.67,252.00 304.00,252.89 304.00,254.00 C304.00,255.11 304.67,256.00 305.50,256.00 C306.33,256.00 307.00,255.11 307.00,254.00 ZM 314.00 254.00 C314.00,252.67 313.33,252.00 312.00,252.00 C310.67,252.00 310.00,252.67 310.00,254.00 C310.00,255.33 310.67,256.00 312.00,256.00 C313.33,256.00 314.00,255.33 314.00,254.00 ZM 267.50 247.00 C267.50,246.19 266.71,245.38 265.75,245.19 C264.52,244.95 264.00,245.49 264.00,247.00 C264.00,248.51 264.52,249.05 265.75,248.81 C266.71,248.62 267.50,247.81 267.50,247.00 ZM 322.81 247.26 C322.32,244.73 319.36,244.51 318.72,246.95 C318.29,248.61 318.66,249.00 320.67,249.00 C322.48,249.00 323.06,248.54 322.81,247.26 ZM 313.80 246.80 C315.15,245.45 315.57,205.47 314.24,204.65 C312.89,203.81 273.12,203.55 272.30,204.37 C271.86,204.81 271.60,214.43 271.72,225.75 C271.88,241.22 272.25,246.54 273.22,247.16 C275.36,248.52 312.41,248.19 313.80,246.80 ZM 267.81 240.26 C267.31,237.65 264.00,237.36 264.00,239.93 C264.00,241.36 264.64,242.00 266.07,242.00 C267.50,242.00 268.04,241.46 267.81,240.26 ZM 323.00 240.00 C323.00,238.67 322.33,238.00 321.00,238.00 C319.67,238.00 319.00,238.67 319.00,240.00 C319.00,241.33 319.67,242.00 321.00,242.00 C322.33,242.00 323.00,241.33 323.00,240.00 ZM 268.00 233.47 C268.00,231.41 265.01,230.37 263.97,232.06 C262.86,233.85 263.68,235.00 266.06,235.00 C267.14,235.00 268.00,234.32 268.00,233.47 ZM 322.81 233.25 C322.62,232.29 321.58,231.50 320.50,231.50 C319.42,231.50 318.38,232.29 318.19,233.25 C317.94,234.56 318.52,235.00 320.50,235.00 C322.48,235.00 323.06,234.56 322.81,233.25 ZM 267.81 225.74 C268.04,224.54 267.50,224.00 266.07,224.00 C264.64,224.00 264.00,224.64 264.00,226.07 C264.00,228.64 267.31,228.35 267.81,225.74 ZM 322.81 226.25 C322.62,225.29 321.58,224.50 320.50,224.50 C319.42,224.50 318.38,225.29 318.19,226.25 C317.94,227.56 318.52,228.00 320.50,228.00 C322.48,228.00 323.06,227.56 322.81,226.25 ZM 268.00 219.62 C268.00,218.86 267.10,218.00 266.00,217.71 C264.52,217.32 264.00,217.68 264.00,219.09 C264.00,220.33 264.70,221.00 266.00,221.00 C267.10,221.00 268.00,220.38 268.00,219.62 ZM 323.00 219.56 C323.00,218.77 322.53,217.83 321.95,217.47 C320.26,216.42 317.98,217.78 318.62,219.46 C319.37,221.41 323.00,221.49 323.00,219.56 ZM 267.81 211.75 C268.30,209.17 264.37,209.47 263.69,212.06 C263.26,213.72 263.57,214.06 265.32,213.81 C266.51,213.64 267.63,212.71 267.81,211.75 ZM 322.81 212.26 C322.31,209.65 319.00,209.36 319.00,211.93 C319.00,213.36 319.64,214.00 321.07,214.00 C322.50,214.00 323.04,213.46 322.81,212.26 ZM 267.81 204.74 C268.04,203.54 267.50,203.00 266.07,203.00 C264.64,203.00 264.00,203.64 264.00,205.07 C264.00,207.64 267.31,207.35 267.81,204.74 ZM 322.81 205.26 C322.31,202.65 319.00,202.36 319.00,204.93 C319.00,206.36 319.64,207.00 321.07,207.00 C322.50,207.00 323.04,206.46 322.81,205.26 ZM 279.00 197.00 C279.00,195.90 278.40,195.00 277.67,195.00 C275.79,195.00 275.05,195.96 275.68,197.60 C276.49,199.72 279.00,199.27 279.00,197.00 ZM 286.00 197.00 C286.00,195.89 285.33,195.00 284.50,195.00 C283.67,195.00 283.00,195.89 283.00,197.00 C283.00,198.11 283.67,199.00 284.50,199.00 C285.33,199.00 286.00,198.11 286.00,197.00 ZM 293.00 197.00 C293.00,195.89 292.33,195.00 291.50,195.00 C290.67,195.00 290.00,195.89 290.00,197.00 C290.00,198.11 290.67,199.00 291.50,199.00 C292.33,199.00 293.00,198.11 293.00,197.00 ZM 300.00 197.00 C300.00,195.89 299.33,195.00 298.50,195.00 C297.67,195.00 297.00,195.89 297.00,197.00 C297.00,198.11 297.67,199.00 298.50,199.00 C299.33,199.00 300.00,198.11 300.00,197.00 ZM 307.00 197.00 C307.00,195.89 306.33,195.00 305.50,195.00 C304.67,195.00 304.00,195.89 304.00,197.00 C304.00,198.11 304.67,199.00 305.50,199.00 C306.33,199.00 307.00,198.11 307.00,197.00 ZM 314.00 197.00 C314.00,195.67 313.33,195.00 312.00,195.00 C310.67,195.00 310.00,195.67 310.00,197.00 C310.00,198.33 310.67,199.00 312.00,199.00 C313.33,199.00 314.00,198.33 314.00,197.00 ZM 279.19 188.50 C279.55,185.40 279.34,185.00 277.30,185.00 C275.44,185.00 275.00,185.54 275.00,187.83 C275.00,193.18 278.58,193.75 279.19,188.50 ZM 286.19 188.50 C286.55,185.40 286.34,185.00 284.30,185.00 C282.34,185.00 282.00,185.51 282.00,188.50 C282.00,191.27 282.40,192.00 283.89,192.00 C285.31,192.00 285.88,191.12 286.19,188.50 ZM 293.00 190.08 C293.00,189.03 293.27,187.45 293.61,186.58 C294.06,185.39 293.57,185.00 291.61,185.00 C289.29,185.00 289.00,185.40 289.00,188.50 C289.00,191.33 289.38,192.00 291.00,192.00 C292.30,192.00 293.00,191.33 293.00,190.08 ZM 300.19 188.50 C300.55,185.40 300.34,185.00 298.30,185.00 C296.44,185.00 296.00,185.54 296.00,187.83 C296.00,193.18 299.58,193.75 300.19,188.50 ZM 307.19 188.50 C307.55,185.40 307.34,185.00 305.30,185.00 C303.34,185.00 303.00,185.51 303.00,188.50 C303.00,191.27 303.40,192.00 304.89,192.00 C306.31,192.00 306.88,191.12 307.19,188.50 ZM 214.92 258.41 C214.42,257.81 214.31,257.02 214.68,256.66 C215.04,256.30 224.12,256.00 234.85,256.00 C253.55,256.00 254.47,255.91 256.70,253.81 C259.99,250.72 261.52,252.74 258.51,256.21 L 256.17 258.92 L 236.00 259.21 C222.30,259.41 215.54,259.15 214.92,258.41 ZM 357.51 258.02 C356.77,256.82 357.71,255.00 359.06,255.00 C360.28,255.00 360.28,257.71 359.07,258.46 C358.56,258.77 357.86,258.58 357.51,258.02 ZM 31.64 252.31 C30.44,251.11 30.99,249.00 32.50,249.00 C33.33,249.00 34.00,249.65 34.00,250.44 C34.00,252.11 32.57,253.24 31.64,252.31 ZM 214.77 251.86 C214.21,251.51 214.05,250.72 214.43,250.11 C214.89,249.37 220.53,249.00 231.38,249.00 C247.44,249.00 247.68,248.97 250.00,246.50 C252.60,243.73 257.00,243.10 257.00,245.50 C257.00,246.32 256.18,247.00 255.17,247.00 C254.17,247.00 252.31,248.10 251.04,249.45 C248.80,251.84 248.28,251.92 232.27,252.20 C223.21,252.37 215.34,252.21 214.77,251.86 ZM 378.00 239.85 C378.00,232.00 378.13,231.55 381.54,227.38 L 385.08 223.06 L 385.29 197.79 C385.48,174.62 385.65,172.50 387.25,172.19 C388.32,171.98 389.00,172.47 389.00,173.43 C389.00,174.29 388.66,175.00 388.25,175.00 C387.84,175.00 387.63,185.01 387.79,197.25 L 388.07 219.50 L 391.04 221.21 C394.32,223.09 394.88,225.98 392.43,228.43 C390.54,230.32 387.86,230.46 386.15,228.75 C384.37,226.98 381.11,231.42 380.84,236.00 C380.72,237.93 380.56,240.85 380.48,242.50 C380.23,247.34 380.05,248.00 379.00,248.00 C378.42,248.00 378.00,244.62 378.00,239.85 ZM 390.55 225.91 C391.58,224.25 389.27,222.33 387.89,223.71 C386.73,224.87 387.46,227.00 389.00,227.00 C389.49,227.00 390.18,226.51 390.55,225.91 ZM 232.33 245.20 C228.56,245.02 225.71,244.36 225.00,243.50 C224.24,242.58 222.81,242.29 220.92,242.67 C217.43,243.36 215.00,241.65 215.00,238.50 C215.00,233.79 221.41,232.40 223.51,236.64 C225.87,241.39 227.02,242.00 233.62,242.00 C238.51,242.00 240.00,242.34 240.00,243.44 C240.00,245.41 239.41,245.54 232.33,245.20 ZM 221.30 238.51 C221.41,237.97 220.71,237.38 219.75,237.19 C218.66,236.98 218.00,237.47 218.00,238.50 C218.00,240.24 220.96,240.25 221.30,238.51 ZM 349.93 244.42 C348.93,243.22 348.88,242.16 349.70,239.99 C350.62,237.53 350.47,236.85 348.56,235.05 C346.70,233.31 344.88,232.93 337.42,232.73 C330.37,232.55 328.50,232.19 328.50,231.04 C328.50,229.84 330.19,229.63 337.92,229.88 L 347.34 230.18 L 352.66 234.84 C357.98,239.50 359.19,242.41 356.80,244.80 C355.11,246.49 351.49,246.29 349.93,244.42 ZM 355.30 241.51 C355.41,240.97 354.71,240.38 353.75,240.19 C352.66,239.98 352.00,240.47 352.00,241.50 C352.00,243.24 354.96,243.25 355.30,241.51 ZM 384.50 243.64 C381.55,239.13 386.08,234.51 390.57,237.45 C393.46,239.35 393.70,242.06 391.17,244.35 C388.62,246.65 386.31,246.41 384.50,243.64 ZM 389.55 241.91 C390.58,240.25 388.27,238.33 386.89,239.71 C385.73,240.87 386.46,243.00 388.00,243.00 C388.49,243.00 389.18,242.51 389.55,241.91 ZM 235.50 235.00 L 230.58 230.00 L 222.79 230.00 C216.84,230.00 215.00,229.67 215.00,228.62 C215.00,227.58 216.90,227.21 222.78,227.10 L 230.56 226.96 L 236.35 232.13 L 242.15 237.29 L 250.07 237.08 C256.69,236.91 258.00,237.13 258.00,238.44 C258.00,239.74 256.52,240.00 249.21,240.00 L 240.42 240.00 L 235.50 235.00 ZM 328.43 238.88 C327.53,237.43 328.01,237.20 332.50,236.99 C338.42,236.72 339.21,236.87 338.75,238.25 C338.24,239.78 329.32,240.33 328.43,238.88 ZM 232.04 224.45 C224.25,216.65 223.34,216.03 220.45,216.58 C218.25,216.99 216.81,216.67 215.65,215.51 C213.51,213.37 213.57,212.43 216.00,210.00 C218.64,207.36 219.59,207.47 222.67,210.75 C224.09,212.26 228.90,217.21 233.36,221.75 L 241.46 230.00 L 249.23 230.00 C255.47,230.00 257.00,230.30 257.00,231.50 C257.00,232.72 255.44,232.99 248.75,232.96 L 240.50 232.92 L 232.04 224.45 ZM 220.55 213.91 C221.58,212.25 219.27,210.33 217.89,211.71 C216.73,212.87 217.46,215.00 219.00,215.00 C219.49,215.00 220.18,214.51 220.55,213.91 ZM 405.00 229.50 C405.00,228.67 405.89,228.00 407.00,228.00 C408.11,228.00 409.00,228.67 409.00,229.50 C409.00,230.33 408.11,231.00 407.00,231.00 C405.89,231.00 405.00,230.33 405.00,229.50 ZM 239.25 221.25 C235.36,217.03 235.00,216.18 235.00,211.33 C235.00,206.21 234.88,205.98 231.50,204.56 C228.64,203.37 228.00,202.57 228.00,200.21 C228.00,196.31 231.74,194.43 234.98,196.70 C236.69,197.90 237.07,198.90 236.63,201.09 C236.32,202.65 236.50,204.19 237.03,204.52 C237.56,204.85 238.02,207.45 238.04,210.31 C238.07,214.59 238.60,216.11 241.07,219.00 C243.79,222.18 244.64,222.55 250.55,223.00 C259.07,223.66 258.87,225.45 250.26,225.68 L 243.50 225.85 L 239.25 221.25 ZM 233.82 200.33 C233.34,197.82 231.00,197.48 231.00,199.92 C231.00,201.15 231.65,202.00 232.57,202.00 C233.50,202.00 234.01,201.32 233.82,200.33 ZM 251.67 218.33 C250.23,216.90 251.13,216.00 254.00,216.00 C256.00,216.00 257.00,216.50 257.00,217.50 C257.00,219.01 252.98,219.64 251.67,218.33 ZM 328.00 217.50 C328.00,216.25 330.05,216.00 340.42,216.00 L 352.84 216.00 L 356.27 212.00 L 359.69 208.00 L 368.31 208.00 C375.81,208.00 377.06,207.75 377.96,206.07 C378.57,204.93 379.00,196.49 379.00,185.69 C379.00,170.51 378.73,167.02 377.50,166.00 C374.32,163.36 376.33,158.00 380.50,158.00 C384.71,158.00 386.49,162.70 383.52,165.98 C382.33,167.29 382.03,171.39 381.96,187.06 C381.85,211.29 382.00,211.00 369.40,211.00 L 361.16 211.00 L 357.73 215.00 L 354.31 219.00 L 341.15 219.00 C330.13,219.00 328.00,218.76 328.00,217.50 ZM 382.57 162.89 C383.32,161.67 381.08,159.83 379.80,160.62 C379.36,160.90 379.00,161.77 379.00,162.56 C379.00,164.26 381.58,164.49 382.57,162.89 ZM 249.75 211.25 L 244.00 210.90 L 243.96 205.20 L 243.92 199.50 L 231.71 186.73 C224.99,179.71 219.01,173.97 218.40,173.98 C217.80,173.99 216.51,173.12 215.54,172.04 C211.89,168.01 216.20,162.43 220.99,164.99 C222.53,165.82 223.00,166.95 222.83,169.43 C222.63,172.44 223.80,174.01 234.80,185.58 C246.89,198.28 247.00,198.44 247.00,203.15 L 247.00 207.90 L 252.25 208.20 C255.97,208.41 257.50,208.91 257.50,209.92 C257.50,211.62 257.07,211.70 249.75,211.25 ZM 220.55 169.91 C221.58,168.25 219.27,166.33 217.89,167.71 C216.73,168.87 217.46,171.00 219.00,171.00 C219.49,171.00 220.18,170.51 220.55,169.91 ZM 328.00 210.50 C328.00,209.40 329.14,209.00 332.29,209.00 C336.06,209.00 337.13,208.45 341.00,204.50 L 345.42 200.00 L 358.21 200.00 L 371.00 200.00 L 371.00 174.97 C371.00,153.33 371.21,149.86 372.54,149.35 C373.39,149.02 374.18,148.92 374.29,149.13 C374.41,149.33 374.37,161.54 374.20,176.25 L 373.91 203.00 L 360.04 203.00 L 346.17 203.00 L 342.21 207.50 C338.48,211.73 337.94,212.00 333.12,212.00 C329.24,212.00 328.00,211.64 328.00,210.50 ZM 217.50 203.00 C216.66,201.65 217.79,200.00 219.56,200.00 C220.35,200.00 221.00,200.90 221.00,202.00 C221.00,204.07 218.59,204.76 217.50,203.00 ZM 222.67 201.33 C222.30,200.97 222.00,199.42 222.00,197.90 C222.00,193.49 220.33,190.27 217.31,188.82 C212.47,186.51 213.35,180.00 218.50,180.00 C221.61,180.00 223.37,182.41 222.57,185.58 C222.21,187.03 222.41,188.79 223.02,189.53 C224.49,191.29 225.59,202.00 224.31,202.00 C223.77,202.00 223.03,201.70 222.67,201.33 ZM 220.00 184.50 C220.00,183.68 219.32,183.00 218.50,183.00 C217.68,183.00 217.00,183.68 217.00,184.50 C217.00,185.32 217.68,186.00 218.50,186.00 C219.32,186.00 220.00,185.32 220.00,184.50 ZM 253.16 194.00 C251.35,190.70 249.29,188.00 248.59,188.00 C246.84,188.00 244.00,184.71 244.00,182.69 C244.00,180.11 248.45,177.64 250.82,178.90 C253.14,180.15 254.16,182.42 253.34,184.55 C252.57,186.56 255.79,194.02 258.33,196.11 C260.30,197.74 259.92,200.00 257.67,200.00 C257.01,200.00 254.98,197.30 253.16,194.00 ZM 250.55 183.91 C251.58,182.25 249.27,180.33 247.89,181.71 C246.73,182.87 247.46,185.00 249.00,185.00 C249.49,185.00 250.18,184.51 250.55,183.91 ZM 334.20 196.80 C332.21,194.81 332.83,192.04 335.90,189.19 C342.53,183.02 342.99,181.25 343.00,161.92 C343.00,144.47 342.98,144.33 340.50,142.00 C338.66,140.27 338.00,138.62 338.00,135.74 C338.00,131.35 340.47,130.81 340.54,135.19 C340.57,136.59 341.81,139.17 343.29,140.94 L 346.00 144.15 L 346.00 162.44 C346.00,180.39 345.95,180.79 343.45,184.49 C341.33,187.60 341.06,188.72 341.86,191.03 C343.61,196.05 337.82,200.42 334.20,196.80 ZM 339.57 193.89 C340.32,192.67 338.08,190.83 336.80,191.62 C336.36,191.90 336.00,192.77 336.00,193.56 C336.00,195.26 338.58,195.49 339.57,193.89 ZM 322.67 196.33 C321.50,195.17 321.94,193.96 323.81,193.22 C324.81,192.82 327.96,189.91 330.81,186.74 L 336.00 180.98 L 336.00 164.55 C336.00,153.57 336.37,147.89 337.11,147.43 C339.21,146.13 339.50,148.84 339.00,165.39 L 338.50 181.99 L 332.00 189.43 C325.75,196.57 324.12,197.78 322.67,196.33 ZM 360.20 194.80 C357.39,191.99 359.51,187.00 363.50,187.00 C366.18,187.00 368.00,188.82 368.00,191.50 C368.00,194.18 366.18,196.00 363.50,196.00 C362.35,196.00 360.86,195.46 360.20,194.80 ZM 365.32 192.34 C366.23,191.44 363.99,188.89 362.89,189.57 C361.51,190.42 361.84,193.00 363.33,193.00 C364.07,193.00 364.96,192.70 365.32,192.34 ZM 29.45 190.91 C28.57,189.50 30.50,187.57 31.91,188.45 C33.50,189.43 33.24,192.00 31.56,192.00 C30.77,192.00 29.82,191.51 29.45,190.91 ZM 261.69 184.35 C261.31,183.98 261.00,175.43 261.00,165.37 L 261.00 147.07 L 258.09 143.75 C255.83,141.18 255.11,139.30 254.90,135.41 C254.76,132.65 254.98,129.85 255.39,129.18 C256.82,126.86 258.00,129.15 258.00,134.26 C258.00,138.61 258.46,139.88 260.96,142.46 L 263.92 145.51 L 264.04 164.98 C264.15,182.69 263.71,186.37 261.69,184.35 ZM 350.00 158.43 L 350.00 134.86 L 345.84 129.93 C343.20,126.79 340.89,125.00 339.50,125.00 C337.04,125.00 334.00,122.14 334.00,119.83 C334.00,117.88 337.17,115.00 339.31,115.00 C341.34,115.00 344.24,119.21 343.52,121.11 C343.22,121.89 345.16,124.91 347.94,128.00 L 352.89 133.50 L 352.80 153.00 C352.68,174.87 352.22,182.00 350.90,182.00 C350.39,182.00 350.00,171.72 350.00,158.43 ZM 340.55 120.91 C341.58,119.25 339.27,117.33 337.89,118.71 C336.73,119.87 337.46,122.00 339.00,122.00 C339.49,122.00 340.18,121.51 340.55,120.91 ZM 359.18 180.45 C359.63,178.28 361.40,178.14 361.81,180.25 C362.02,181.34 361.53,182.00 360.50,182.00 C359.54,182.00 358.99,181.35 359.18,180.45 ZM 364.53 181.05 C363.65,179.63 364.77,178.00 366.63,178.00 C367.51,178.00 368.01,178.70 367.82,179.67 C367.43,181.68 365.44,182.52 364.53,181.05 ZM 273.00 177.55 C273.00,176.20 271.90,174.00 270.56,172.66 C266.15,168.24 270.43,162.08 275.57,165.45 C278.39,167.30 278.62,169.13 276.44,172.45 C275.58,173.77 274.96,175.44 275.06,176.17 C275.39,178.62 275.01,180.00 274.00,180.00 C273.45,180.00 273.00,178.90 273.00,177.55 ZM 274.55 169.91 C275.41,168.52 273.51,166.57 272.13,167.42 C270.98,168.13 271.72,171.00 273.05,171.00 C273.51,171.00 274.18,170.51 274.55,169.91 ZM 318.00 175.88 C318.00,172.73 318.71,170.96 321.00,168.35 C325.81,162.86 325.20,159.70 318.00,152.84 C314.70,149.70 312.00,146.50 312.00,145.72 C312.00,143.87 315.22,141.00 317.31,141.00 C319.95,141.00 322.36,145.45 321.05,147.91 C320.13,149.63 320.50,150.55 323.48,153.84 C326.39,157.07 327.00,158.51 327.00,162.18 C327.00,165.81 326.45,167.15 324.00,169.50 C322.35,171.08 321.00,173.38 321.00,174.61 C321.00,175.83 320.73,177.55 320.39,178.42 C319.26,181.36 318.00,180.02 318.00,175.88 ZM 318.55 146.91 C319.58,145.25 317.27,143.33 315.89,144.71 C314.73,145.87 315.46,148.00 317.00,148.00 C317.49,148.00 318.18,147.51 318.55,146.91 ZM 281.00 171.72 L 281.00 164.44 L 275.00 158.50 L 269.00 152.56 L 269.00 146.40 C269.00,142.15 268.54,139.86 267.50,139.00 C266.56,138.22 266.00,136.02 266.00,133.08 C266.00,128.94 265.54,127.96 262.00,124.50 L 258.00 120.59 L 258.00 101.21 C258.00,82.57 257.92,81.75 255.85,80.08 C254.21,78.75 253.86,77.71 254.36,75.68 C255.14,72.60 259.19,71.09 261.51,73.01 C263.19,74.40 263.53,79.56 262.00,80.50 C261.39,80.88 261.00,88.61 261.00,100.36 L 261.00 119.59 L 265.00 123.50 C268.34,126.77 269.01,128.07 269.03,131.45 C269.05,133.68 269.72,136.37 270.53,137.44 C271.45,138.65 272.00,141.67 272.00,145.47 L 272.00 151.56 L 278.00 157.50 L 284.00 163.44 L 284.00 171.22 C284.00,177.47 283.70,179.00 282.50,179.00 C281.30,179.00 281.00,177.52 281.00,171.72 ZM 260.30 76.51 C260.41,75.97 259.71,75.38 258.75,75.19 C257.66,74.98 257.00,75.47 257.00,76.50 C257.00,78.24 259.96,78.25 260.30,76.51 ZM 288.96 178.25 C288.94,177.84 288.83,170.52 288.71,162.00 C288.51,146.92 288.44,146.49 286.32,146.19 C281.23,145.46 280.66,138.62 285.60,137.39 C290.76,136.09 291.28,137.96 291.77,159.45 C292.17,176.94 292.05,179.00 290.61,179.00 C289.72,179.00 288.98,178.66 288.96,178.25 ZM 288.43 140.89 C287.58,139.51 285.00,139.84 285.00,141.33 C285.00,142.07 285.30,142.96 285.66,143.32 C286.56,144.23 289.11,141.99 288.43,140.89 ZM 303.00 170.31 C303.00,161.70 302.97,161.59 299.16,157.06 L 295.33 152.50 L 295.70 134.00 C296.19,109.34 298.00,108.78 298.00,133.29 L 298.00 151.75 L 302.00 156.12 L 306.00 160.50 L 306.00 169.75 C306.00,177.31 305.73,179.00 304.50,179.00 C303.28,179.00 303.00,177.37 303.00,170.31 ZM 310.91 178.25 C310.85,177.84 310.89,173.42 310.98,168.44 C311.15,159.40 311.14,159.36 307.58,155.09 L 304.00 150.81 L 304.00 116.03 C304.00,86.33 303.78,81.06 302.50,80.00 C299.40,77.43 301.04,72.00 304.91,72.00 C309.60,72.00 311.66,76.19 308.52,79.34 C307.27,80.59 307.03,86.27 306.97,115.56 L 306.91 150.31 L 310.08 153.58 C313.48,157.09 313.27,155.64 313.06,173.50 C313.03,176.52 312.55,179.00 312.00,179.00 C311.45,179.00 310.96,178.66 310.91,178.25 ZM 307.00 76.67 C307.00,75.93 306.70,75.04 306.34,74.68 C305.44,73.77 302.89,76.01 303.57,77.11 C304.42,78.49 307.00,78.16 307.00,76.67 ZM 294.00 174.56 C294.00,173.77 294.36,172.90 294.80,172.62 C296.08,171.83 298.32,173.67 297.57,174.89 C296.58,176.49 294.00,176.26 294.00,174.56 ZM 357.00 152.57 C357.00,136.18 356.64,128.40 355.82,127.08 C354.88,125.57 354.98,124.68 356.34,122.60 C358.46,119.36 361.47,119.26 363.50,122.36 C365.25,125.03 364.64,127.59 361.90,129.05 C360.18,129.97 360.02,131.78 359.77,152.69 C359.57,169.72 359.19,175.44 358.25,175.75 C357.27,176.08 357.00,171.00 357.00,152.57 ZM 361.75 124.75 C361.52,124.06 360.73,123.50 360.00,123.50 C359.27,123.50 358.48,124.06 358.25,124.75 C358.00,125.49 358.71,126.00 360.00,126.00 C361.29,126.00 362.00,125.49 361.75,124.75 ZM 365.00 158.64 C365.00,148.70 364.60,141.87 364.00,141.50 C362.44,140.54 362.82,135.39 364.56,133.95 C365.67,133.03 366.89,132.93 368.81,133.60 C372.46,134.87 373.01,139.18 369.81,141.42 C367.58,142.98 367.49,143.62 367.24,158.77 C367.09,168.04 366.58,174.64 365.99,174.83 C365.36,175.04 365.00,169.12 365.00,158.64 ZM 369.00 137.44 C369.00,136.65 368.33,136.00 367.50,136.00 C365.99,136.00 365.44,138.11 366.64,139.31 C367.57,140.24 369.00,139.11 369.00,137.44 ZM 238.00 172.94 C237.18,172.50 235.75,171.91 234.83,171.63 C233.79,171.32 233.34,170.43 233.63,169.30 C233.93,168.15 232.98,166.40 231.05,164.55 C229.37,162.94 228.00,160.97 228.00,160.16 C228.00,159.36 230.02,156.24 232.50,153.24 L 237.00 147.77 L 237.00 108.30 C237.00,77.17 237.26,68.92 238.25,69.25 C239.22,69.57 239.56,78.66 239.76,109.23 L 240.02 148.79 L 235.39 154.48 L 230.75 160.17 L 235.13 164.77 C240.82,170.76 242.00,172.08 242.00,172.46 C242.00,173.32 239.33,173.64 238.00,172.94 ZM 249.04 172.07 C248.47,171.01 248.29,169.41 248.64,168.51 C249.05,167.43 248.09,165.66 245.88,163.38 L 242.50 159.89 L 242.20 113.86 C241.92,70.02 241.99,67.85 243.70,68.18 C245.40,68.51 245.50,71.05 245.56,113.69 L 245.61 158.85 L 248.56 161.82 C250.18,163.46 252.38,164.96 253.47,165.15 C254.55,165.35 256.10,166.71 256.92,168.16 C258.16,170.37 258.18,171.07 257.08,172.40 C255.21,174.66 250.31,174.45 249.04,172.07 ZM 254.55 170.91 C255.58,169.25 253.27,167.33 251.89,168.71 C250.73,169.87 251.46,172.00 253.00,172.00 C253.49,172.00 254.18,171.51 254.55,170.91 ZM 294.18 167.45 C294.63,165.28 296.40,165.14 296.81,167.25 C297.02,168.34 296.53,169.00 295.50,169.00 C294.54,169.00 293.99,168.35 294.18,167.45 ZM 405.00 167.07 C405.00,166.55 404.10,165.85 403.00,165.50 C400.73,164.78 400.29,163.00 402.38,163.00 C403.14,163.00 404.46,161.99 405.33,160.75 C406.64,158.86 406.90,158.78 406.95,160.25 C406.98,161.21 407.34,162.01 407.75,162.02 C408.16,162.02 409.15,162.44 409.95,162.95 C411.14,163.70 410.97,164.22 408.95,165.90 C406.27,168.13 405.00,168.50 405.00,167.07 ZM 316.43 164.89 C315.68,163.67 317.92,161.83 319.20,162.62 C319.64,162.90 320.00,163.77 320.00,164.56 C320.00,166.26 317.42,166.49 316.43,164.89 ZM 32.12 161.65 C30.91,160.18 31.60,159.00 33.67,159.00 C35.16,159.00 35.49,161.58 34.11,162.43 C33.63,162.73 32.73,162.38 32.12,161.65 ZM 251.71 150.56 L 248.00 146.12 L 248.00 103.18 C248.00,66.24 247.79,60.07 246.50,59.00 C242.44,55.63 246.75,49.65 251.63,51.88 C254.39,53.13 255.00,58.40 252.50,59.36 C251.20,59.86 251.00,65.62 251.00,102.77 L 251.00 145.61 L 254.50 149.00 C256.42,150.87 258.00,152.98 258.00,153.70 C258.00,156.25 255.37,154.94 251.71,150.56 ZM 251.43 54.89 C250.58,53.51 248.00,53.84 248.00,55.33 C248.00,56.07 248.30,56.96 248.66,57.32 C249.56,58.23 252.11,55.99 251.43,54.89 ZM 215.57 152.43 C213.67,150.53 213.58,148.90 215.25,146.83 C217.37,144.20 219.90,143.90 222.02,146.02 C224.48,148.48 224.52,150.22 222.17,152.35 C219.87,154.42 217.60,154.45 215.57,152.43 ZM 220.57 149.89 C221.43,148.49 218.83,146.77 217.65,147.95 C216.68,148.92 217.61,151.00 219.00,151.00 C219.49,151.00 220.19,150.50 220.57,149.89 ZM 276.00 130.42 C276.00,116.79 276.28,112.93 277.25,113.25 C278.17,113.56 278.57,118.19 278.77,130.83 C279.01,145.66 278.84,148.00 277.52,148.00 C276.22,148.00 276.00,145.50 276.00,130.42 ZM 45.59 142.52 C45.21,140.98 44.02,139.79 42.48,139.41 C39.39,138.63 39.26,137.24 42.25,136.82 C43.49,136.64 44.94,135.49 45.49,134.25 C46.63,131.64 48.00,131.28 48.00,133.59 C48.00,134.46 49.35,135.68 51.00,136.31 C54.67,137.69 54.80,138.58 51.46,139.42 C50.05,139.78 48.51,141.15 47.99,142.53 C46.81,145.63 46.38,145.63 45.59,142.52 ZM 222.49 140.35 C221.43,139.29 221.08,137.95 221.51,136.60 C221.88,135.45 222.26,128.01 222.34,120.09 C222.46,109.57 222.84,105.56 223.75,105.25 C224.71,104.93 225.00,108.00 225.00,118.44 C225.00,131.83 225.04,132.06 227.36,132.95 C230.54,134.16 231.38,136.78 229.50,139.64 C227.69,142.40 224.83,142.69 222.49,140.35 ZM 227.55 137.91 C228.58,136.25 226.27,134.33 224.89,135.71 C223.73,136.87 224.46,139.00 226.00,139.00 C226.49,139.00 227.18,138.51 227.55,137.91 ZM 329.44 121.78 C330.00,107.38 329.88,105.19 328.30,102.26 C326.25,98.45 327.26,95.71 330.91,95.17 C335.62,94.47 338.02,100.72 334.00,103.23 C332.13,104.40 332.00,105.56 332.00,121.24 C332.00,135.95 331.80,138.00 330.40,138.00 C328.97,138.00 328.86,136.26 329.44,121.78 ZM 333.38 100.20 C334.17,98.92 332.33,96.68 331.11,97.43 C329.51,98.42 329.74,101.00 331.44,101.00 C332.23,101.00 333.10,100.64 333.38,100.20 ZM 309.93 132.87 C308.55,130.29 310.14,126.00 312.48,126.00 C313.77,126.00 314.00,123.87 314.00,112.00 C314.00,104.01 313.60,98.00 313.07,98.00 C312.55,98.00 311.85,97.12 311.51,96.04 C309.78,90.57 317.81,87.30 320.19,92.51 C321.16,94.65 321.01,95.36 319.17,97.32 C317.17,99.45 317.00,100.67 317.00,112.77 C317.00,120.60 317.47,126.93 318.16,128.45 C319.12,130.57 319.01,131.33 317.50,133.00 C315.12,135.63 311.38,135.57 309.93,132.87 ZM 316.00 130.56 C316.00,129.77 315.51,128.82 314.91,128.45 C313.50,127.57 311.57,129.50 312.45,130.91 C313.43,132.50 316.00,132.24 316.00,130.56 ZM 318.00 94.50 C318.00,93.67 317.11,93.00 316.00,93.00 C314.89,93.00 314.00,93.67 314.00,94.50 C314.00,95.33 314.89,96.00 316.00,96.00 C317.11,96.00 318.00,95.33 318.00,94.50 ZM 283.07 129.07 C280.88,126.88 281.33,123.16 283.89,122.27 C287.38,121.06 288.95,117.66 288.98,111.29 C289.00,106.21 288.66,104.89 287.12,104.06 C284.52,102.68 283.79,100.26 285.17,97.69 C285.81,96.49 286.22,92.86 286.09,89.61 C285.90,85.02 285.38,83.32 283.77,82.02 C280.90,79.69 282.01,75.29 285.68,74.36 C287.74,73.85 288.76,74.22 290.19,75.99 C291.88,78.07 291.91,78.49 290.52,80.60 C289.59,82.03 289.00,85.24 289.00,88.90 C289.00,93.98 289.29,94.96 291.00,95.50 C293.36,96.25 294.74,100.66 293.13,102.27 C292.50,102.90 292.00,106.56 292.00,110.48 C292.00,115.38 291.50,118.27 290.38,119.86 C289.20,121.56 289.06,122.46 289.88,123.28 C291.54,124.94 291.24,127.47 289.17,129.35 C286.80,131.49 285.43,131.43 283.07,129.07 ZM 287.50 126.00 C287.50,125.27 286.94,124.48 286.25,124.25 C285.51,124.00 285.00,124.71 285.00,126.00 C285.00,127.29 285.51,128.00 286.25,127.75 C286.94,127.52 287.50,126.73 287.50,126.00 ZM 291.00 99.44 C291.00,97.97 288.87,97.47 287.68,98.66 C286.77,99.56 289.01,102.11 290.11,101.43 C290.60,101.13 291.00,100.23 291.00,99.44 ZM 288.30 78.51 C288.41,77.97 287.71,77.38 286.75,77.19 C285.66,76.98 285.00,77.47 285.00,78.50 C285.00,80.24 287.96,80.25 288.30,78.51 ZM 230.00 91.56 L 230.00 58.95 L 227.71 58.08 C223.88,56.62 222.53,54.32 223.83,51.47 C225.08,48.73 229.92,47.99 231.78,50.25 C233.39,52.20 232.87,123.21 231.25,123.75 C230.27,124.08 230.00,117.20 230.00,91.56 ZM 229.55 53.91 C230.58,52.25 228.27,50.33 226.89,51.71 C225.73,52.87 226.46,55.00 228.00,55.00 C228.49,55.00 229.18,54.51 229.55,53.91 ZM 270.00 108.62 C270.00,98.27 269.83,97.19 268.10,96.74 C265.44,96.04 264.05,92.99 265.11,90.17 C265.84,88.26 266.61,87.90 269.43,88.14 C274.69,88.60 277.00,85.93 277.00,79.39 C277.00,76.00 276.51,73.81 275.65,73.30 C274.90,72.86 273.78,71.53 273.16,70.34 C272.24,68.59 272.38,67.75 273.91,65.86 C275.53,63.87 276.19,63.68 278.65,64.54 C281.81,65.65 282.95,69.15 280.94,71.57 C280.28,72.37 279.50,76.29 279.22,80.26 C278.82,85.88 278.27,87.80 276.79,88.85 C273.48,91.19 272.70,94.99 272.95,107.75 C273.15,118.38 272.97,120.00 271.59,120.00 C270.23,120.00 270.00,118.35 270.00,108.62 ZM 270.55 92.91 C271.58,91.25 269.27,89.33 267.89,90.71 C266.73,91.87 267.46,94.00 269.00,94.00 C269.49,94.00 270.18,93.51 270.55,92.91 ZM 279.00 68.50 C279.00,67.68 278.35,67.00 277.56,67.00 C275.89,67.00 274.76,68.43 275.69,69.36 C276.89,70.56 279.00,70.01 279.00,68.50 ZM 344.05 112.56 C342.14,110.26 343.56,106.15 346.53,105.40 C349.99,104.54 352.17,106.61 351.80,110.41 C351.54,113.05 351.05,113.54 348.41,113.80 C346.55,113.98 344.83,113.50 344.05,112.56 ZM 349.43 108.89 C348.58,107.51 346.00,107.84 346.00,109.33 C346.00,110.07 346.30,110.96 346.66,111.32 C347.56,112.23 350.11,109.99 349.43,108.89 ZM 54.49 110.77 C53.94,109.54 52.39,107.99 51.04,107.32 L 48.58 106.11 L 51.31 105.07 C52.81,104.50 54.55,102.79 55.18,101.27 C56.19,98.81 56.37,98.73 56.76,100.50 C57.42,103.39 58.97,105.00 61.12,105.00 C63.68,105.00 63.49,106.31 60.75,107.51 C59.51,108.06 58.06,109.51 57.51,110.75 C56.28,113.57 55.73,113.57 54.49,110.77 ZM 276.00 109.50 C276.00,108.68 276.67,108.00 277.50,108.00 C278.33,108.00 279.00,108.68 279.00,109.50 C279.00,110.32 278.33,111.00 277.50,111.00 C276.67,111.00 276.00,110.32 276.00,109.50 ZM 296.00 102.54 C296.00,95.29 295.66,93.46 293.85,91.01 C291.81,88.25 291.78,87.98 293.37,85.55 C295.27,82.65 298.12,82.26 300.43,84.57 C302.48,86.62 302.42,88.88 300.25,91.28 C298.91,92.76 298.45,95.23 298.29,101.84 C298.01,113.46 296.00,114.07 296.00,102.54 ZM 299.00 87.43 C299.00,86.50 298.32,85.99 297.33,86.18 C294.82,86.66 294.48,89.00 296.92,89.00 C298.14,89.00 299.00,88.35 299.00,87.43 ZM 395.02 108.52 C394.00,107.30 394.08,106.90 395.45,106.38 C397.79,105.48 399.48,107.36 397.68,108.85 C396.58,109.76 395.99,109.69 395.02,108.52 ZM 216.69 102.35 C215.31,100.98 216.03,98.86 217.75,99.19 C218.71,99.38 219.50,100.16 219.50,100.93 C219.50,102.51 217.74,103.40 216.69,102.35 ZM 222.68 101.35 C222.31,100.97 222.00,95.08 222.00,88.25 C222.00,78.76 222.29,75.93 223.25,76.25 C224.13,76.54 224.58,80.13 224.78,88.50 C225.04,99.39 224.44,103.10 222.68,101.35 ZM 347.00 84.74 C347.00,84.30 347.71,83.67 348.57,83.33 C349.66,82.92 349.96,81.99 349.56,80.36 C349.13,78.66 349.38,78.00 350.48,78.00 C351.44,78.00 352.00,78.93 352.00,80.53 C352.00,81.92 352.67,83.32 353.50,83.64 C356.30,84.71 355.01,85.74 351.00,85.64 C348.80,85.58 347.00,85.17 347.00,84.74 ZM 215.81 73.91 C215.59,65.99 215.85,62.53 216.74,61.80 C218.66,60.21 219.01,62.43 218.61,73.50 C218.17,85.45 218.23,85.00 217.06,85.00 C216.55,85.00 215.98,80.01 215.81,73.91 ZM 265.89 77.75 C265.69,68.14 265.43,66.52 263.64,63.82 C262.26,61.74 262.10,60.68 262.93,59.13 C264.50,56.21 267.77,55.49 270.07,57.56 C272.56,59.82 272.53,62.65 270.00,64.23 C268.25,65.33 268.00,66.56 268.00,74.24 C268.00,83.63 266.08,86.83 265.89,77.75 ZM 268.55 61.91 C269.58,60.25 267.27,58.33 265.89,59.71 C264.73,60.87 265.46,63.00 267.00,63.00 C267.49,63.00 268.18,62.51 268.55,61.91 ZM 36.17 78.34 C36.59,76.15 39.50,75.84 39.50,77.99 C39.50,78.80 38.67,79.63 37.66,79.83 C36.32,80.08 35.92,79.68 36.17,78.34 ZM 86.45 77.91 C85.42,76.25 87.73,74.33 89.11,75.71 C90.27,76.87 89.54,79.00 88.00,79.00 C87.51,79.00 86.82,78.51 86.45,77.91 ZM 324.00 72.00 C324.00,70.49 324.52,69.95 325.75,70.19 C326.71,70.38 327.50,71.19 327.50,72.00 C327.50,72.81 326.71,73.62 325.75,73.81 C324.52,74.05 324.00,73.51 324.00,72.00 ZM 379.00 71.50 C379.00,70.47 379.66,69.98 380.75,70.19 C382.86,70.60 382.72,72.37 380.55,72.82 C379.65,73.01 379.00,72.46 379.00,71.50 ZM 236.45 64.91 C235.42,63.25 237.73,61.33 239.11,62.71 C240.27,63.87 239.54,66.00 238.00,66.00 C237.51,66.00 236.82,65.51 236.45,64.91 ZM 96.45 63.91 C95.42,62.25 97.73,60.33 99.11,61.71 C100.27,62.87 99.54,65.00 98.00,65.00 C97.51,65.00 96.82,64.51 96.45,63.91 ZM 304.45 57.91 C303.42,56.25 305.73,54.33 307.11,55.71 C308.27,56.87 307.54,59.00 306.00,59.00 C305.51,59.00 304.82,58.51 304.45,57.91 ZM 199.69 57.35 C198.31,55.98 199.03,53.86 200.75,54.19 C201.71,54.38 202.50,55.16 202.50,55.93 C202.50,57.51 200.74,58.40 199.69,57.35 ZM 211.66 57.32 C211.30,56.96 211.00,56.07 211.00,55.33 C211.00,53.84 213.58,53.51 214.43,54.89 C215.11,55.99 212.56,58.23 211.66,57.32 ZM 74.45 49.91 C73.42,48.25 75.73,46.33 77.11,47.71 C78.27,48.87 77.54,51.00 76.00,51.00 C75.51,51.00 74.82,50.51 74.45,49.91 ZM 129.00 46.50 C129.00,45.47 129.66,44.98 130.75,45.19 C132.86,45.60 132.72,47.37 130.55,47.82 C129.65,48.01 129.00,47.46 129.00,46.50 ZM 286.12 43.65 C284.91,42.18 285.60,41.00 287.67,41.00 C289.16,41.00 289.49,43.58 288.11,44.43 C287.63,44.73 286.73,44.38 286.12,43.65 ZM 174.46 360.94 C173.68,359.67 182.82,350.77 184.10,351.56 C186.00,352.74 184.86,355.92 181.47,358.90 C177.80,362.11 175.59,362.76 174.46,360.94 ZM 145.89 352.36 C144.72,350.96 145.18,350.20 149.45,346.49 L 154.36 342.24 L 150.93 340.47 C149.04,339.49 144.57,335.93 141.00,332.56 C137.43,329.18 132.55,325.11 130.17,323.52 C125.40,320.32 122.00,314.72 122.00,310.04 C122.00,307.78 122.46,307.00 123.79,307.00 C125.08,307.00 125.93,308.30 126.80,311.56 C129.22,320.60 136.83,323.82 143.80,318.75 C145.50,317.51 148.92,315.03 151.40,313.23 C154.47,311.01 159.04,309.16 165.70,307.43 C176.89,304.53 180.83,301.63 183.07,294.69 C184.55,290.09 185.63,288.92 187.66,289.70 C189.63,290.46 189.34,292.01 185.92,298.85 C182.27,306.14 177.86,309.21 167.96,311.32 C159.31,313.17 154.98,315.13 150.36,319.26 C148.24,321.16 145.20,323.39 143.62,324.21 L 140.73 325.70 L 144.45 329.81 C149.81,335.74 158.83,340.00 166.04,340.00 C169.94,340.00 172.16,340.48 173.02,341.52 C174.95,343.84 173.47,344.49 166.07,344.57 C159.09,344.65 153.64,346.90 150.75,350.89 C148.75,353.66 147.32,354.09 145.89,352.36 ZM 103.99 310.25 C102.05,304.69 100.33,302.43 95.72,299.41 C85.97,293.01 83.06,288.29 83.02,278.80 C83.00,273.47 82.77,272.93 79.50,270.44 C76.34,268.02 75.48,267.83 70.50,268.46 C66.05,269.01 65.00,268.87 65.00,267.69 C65.00,265.76 66.94,264.27 70.00,263.85 C72.27,263.53 72.46,263.14 72.10,259.50 C71.33,251.85 71.40,251.51 73.75,251.18 C75.73,250.90 76.00,251.30 76.00,254.48 C76.00,258.87 77.81,262.54 81.89,266.41 L 84.95 269.33 L 87.05 266.66 C89.29,263.81 93.00,263.06 93.00,265.45 C93.00,266.25 91.93,268.05 90.62,269.46 C88.28,271.99 87.00,275.94 87.00,280.66 C87.00,285.26 90.86,290.93 96.40,294.48 C103.01,298.71 106.73,303.03 107.56,307.46 C108.61,313.08 105.76,315.31 103.99,310.25 ZM 138.46 304.14 C127.36,299.04 123.74,285.49 130.80,275.48 L 133.82 271.19 L 127.78 268.48 C120.05,265.01 113.80,264.90 108.19,268.13 C105.08,269.92 103.81,270.21 102.93,269.33 C101.33,267.73 102.43,266.34 107.32,263.80 C113.83,260.41 120.93,260.75 129.90,264.89 C137.21,268.25 137.29,268.27 143.90,267.02 C152.07,265.48 154.40,265.85 154.82,268.76 C155.12,270.86 154.77,271.00 149.32,271.02 C141.50,271.04 136.43,273.92 133.21,280.18 C131.24,284.01 130.93,285.65 131.53,289.18 C132.38,294.21 138.31,300.91 142.13,301.15 C143.43,301.23 145.40,301.34 146.50,301.40 C147.80,301.46 148.50,302.20 148.50,303.50 C148.50,306.25 143.71,306.56 138.46,304.14 ZM 121.17 297.60 C119.71,293.56 116.72,291.38 111.40,290.49 C105.58,289.52 104.98,289.22 105.62,287.54 C106.47,285.33 113.23,285.57 117.94,287.97 C124.13,291.13 128.87,301.00 124.20,301.00 C123.06,301.00 121.95,299.75 121.17,297.60 ZM 157.38 289.54 C156.73,287.84 158.63,281.53 160.80,278.19 C161.63,276.92 164.13,274.95 166.36,273.82 C169.72,272.10 171.52,271.85 176.89,272.35 C183.89,273.01 185.62,273.94 184.62,276.54 C184.12,277.85 183.39,278.03 181.24,277.38 C179.73,276.92 176.39,276.54 173.81,276.53 C169.99,276.51 168.56,277.05 166.11,279.40 C164.45,280.98 162.80,283.68 162.43,285.39 C161.35,290.45 158.60,292.72 157.38,289.54 ZM 170.50 264.97 C166.49,264.14 163.99,262.71 161.06,259.58 C159.15,257.54 158.89,256.71 159.84,255.76 C160.79,254.81 161.43,254.81 162.78,255.79 C169.77,260.83 170.51,261.11 175.73,260.72 C178.74,260.50 181.75,259.63 182.81,258.67 C185.30,256.42 188.00,256.53 188.00,258.88 C188.00,262.79 177.50,266.44 170.50,264.97 ZM 141.17 258.01 C135.88,254.18 132.25,248.66 131.16,242.82 C130.50,239.31 129.38,237.40 126.50,234.86 C117.82,227.24 117.92,217.03 126.78,208.42 C128.67,206.59 131.64,204.62 133.36,204.05 L 136.50 203.01 L 136.50 195.18 C136.50,188.10 136.78,186.99 139.37,183.59 C142.98,178.85 147.03,176.37 153.42,175.00 C159.98,173.60 163.00,170.76 163.00,166.00 C163.00,159.79 157.55,156.39 150.27,158.07 C144.85,159.32 143.35,158.50 141.37,153.20 C138.98,146.80 135.19,141.98 131.27,140.34 C127.90,138.93 126.93,136.35 129.41,135.40 C133.21,133.94 141.57,141.69 144.51,149.39 L 146.27 154.00 L 151.19 153.51 C157.34,152.90 161.96,154.72 164.97,158.96 C169.04,164.67 168.16,172.33 163.02,175.99 C161.48,177.08 157.95,178.46 155.15,179.06 C142.83,181.70 136.65,192.00 142.06,200.87 C144.62,205.07 143.97,207.00 139.98,207.00 C134.14,207.00 127.30,212.41 125.20,218.70 C123.99,222.36 125.14,228.00 127.61,230.47 C129.91,232.76 130.71,232.36 131.43,228.54 C131.78,226.63 132.55,224.78 133.13,224.42 C135.18,223.15 136.02,225.58 135.15,230.25 C133.24,240.46 137.22,250.59 145.08,255.55 C148.41,257.66 148.93,258.38 147.95,259.56 C146.32,261.53 145.89,261.43 141.17,258.01 ZM 89.43 252.67 C88.54,250.35 89.93,248.75 92.31,249.37 C95.96,250.32 102.45,246.68 104.39,242.59 C106.65,237.83 105.78,233.54 101.65,229.16 C94.78,221.88 82.56,218.99 73.42,222.48 C69.88,223.83 68.56,223.96 67.67,223.04 C65.89,221.24 70.07,218.33 76.29,217.04 C81.23,216.02 88.35,216.64 93.25,218.54 C94.74,219.11 94.90,218.77 94.40,216.23 C93.53,211.92 97.06,204.54 101.18,202.03 C103.37,200.70 106.25,200.01 109.62,200.00 C116.10,200.00 119.68,197.44 120.52,192.21 C121.73,184.65 122.01,184.00 124.02,184.00 C128.51,184.00 125.10,197.41 119.49,201.83 C117.50,203.39 115.35,204.00 111.77,204.00 C103.44,204.00 99.00,208.00 99.00,215.51 C99.00,217.85 99.91,219.97 101.87,222.22 C107.62,228.79 110.00,233.17 110.00,237.18 C110.00,242.18 106.91,248.21 102.89,251.07 C98.85,253.96 90.31,254.97 89.43,252.67 ZM 168.50 239.76 C161.94,237.41 157.86,233.94 155.45,228.67 C152.45,222.12 151.87,216.71 154.11,216.24 C155.31,215.99 156.13,217.42 157.38,221.87 C159.45,229.24 164.36,234.48 170.05,235.39 C174.43,236.09 175.71,237.44 173.96,239.54 C172.58,241.21 172.53,241.21 168.50,239.76 ZM 62.77 236.25 C61.92,235.29 60.02,232.08 58.54,229.13 C57.06,226.18 54.70,222.70 53.31,221.41 C50.72,219.01 50.71,216.00 53.29,216.00 C55.41,216.00 58.51,219.83 62.97,227.95 C66.73,234.78 67.44,238.00 65.19,238.00 C64.70,238.00 63.62,237.21 62.77,236.25 ZM 120.89 169.79 C115.92,166.05 112.24,159.46 111.80,153.50 C111.55,150.12 111.80,149.50 113.42,149.50 C114.93,149.50 115.61,150.65 116.55,154.85 C117.99,161.23 120.34,164.64 125.03,167.16 C128.64,169.09 129.68,172.25 126.89,172.78 C126.00,172.95 123.30,171.61 120.89,169.79 ZM 178.39 160.23 C177.78,159.83 176.51,158.00 175.58,156.18 C172.41,150.00 176.11,142.27 183.60,139.41 C188.25,137.63 190.00,138.08 190.00,141.06 C190.00,142.48 189.31,143.00 187.42,143.00 C183.94,143.00 179.00,148.04 179.00,151.59 C179.00,153.11 179.73,155.15 180.62,156.13 C183.10,158.88 181.31,162.17 178.39,160.23 ZM 146.00 135.12 C146.00,131.60 152.26,128.04 160.21,127.04 C166.47,126.25 167.88,125.70 170.20,123.11 C174.30,118.51 174.76,113.97 171.65,108.66 C170.13,106.07 167.83,103.76 166.04,103.02 C162.41,101.51 161.79,98.00 165.16,98.00 C170.74,98.00 178.00,107.85 178.00,115.43 C178.00,124.19 171.27,130.56 160.67,131.84 C155.99,132.40 153.32,133.29 151.69,134.82 C148.82,137.52 146.00,137.66 146.00,135.12 ZM 159.60 83.16 C158.59,81.53 161.14,74.91 164.05,71.60 C165.67,69.75 168.35,67.68 170.01,67.00 C173.67,65.48 182.88,66.18 184.04,68.07 C185.48,70.39 183.93,71.18 179.14,70.54 C175.63,70.08 173.67,70.38 171.08,71.79 C167.61,73.68 164.00,79.01 164.00,82.23 C164.00,84.05 160.59,84.76 159.60,83.16 Z" fill="#f6faf9"/>
</g>
</svg>